<?xml version="1.0" encoding="UTF-8"?>
<!-- Generated by jsxcad -->
<!DOCTYPE svg PUBLIC "-//W3C//DTD SVG 1.1 Tiny//EN" "http://www.w3.org/Graphics/SVG/1.1/DTD/svg11-tiny.dtd">
<svg baseProfile="tiny" height="201.78050312806016mm" width="201.77969059365554mm" viewBox="-100.88984529682777 -100.89025156403008 201.77969059365554 201.78050312806016" version="1.1" stroke="black" stroke-width=".1" fill="none" xmlns="http://www.w3.org/2000/svg">
<path fill="#bababa" stroke="#bababa" d="M21.648711987471806 -19.37349082827855 L21.702781666191747 -19.28543244778795 L24.14050037868041 -15.066079684288026 L24.964530094694517 -13.947114726224658 L21.783778551517948 -19.451530496252246 z"/>
<path fill="#bababa" stroke="#bababa" d="M-17.01700950398288 23.51900956161996 L-17.050329418598825 23.718281874382484 L-14.655358440905504 24.60910205855969 L-16.95816650914496 23.55612794540048 z"/>
<path fill="#bababa" stroke="#bababa" d="M10.956978733932235 -26.690627800125828 L11.754080874685215 -26.714257763107767 L10.811711567530097 -26.714257763107767 z"/>
<path fill="#bababa" stroke="#bababa" d="M-10.811711567530017 -26.714257763107774 L-11.754080874685217 -26.714257763107778 L-11.72187339788783 -26.56319348599353 L-11.69257345840885 -26.570971882415048 z"/>
<path fill="#bababa" stroke="#bababa" d="M6.085034774240111 28.551641546419646 L6.051031047869347 28.38856207176903 L6.050821571911985 28.388601222466008 z"/>
<path fill="#bababa" stroke="#bababa" d="M27.628407833720953 -8.989242082822267 L27.647308739503938 -8.923986137181164 L27.66639257914684 -8.75398261779113 L27.904377555902368 -6.422561593239985 L27.79005427452333 -9.041476962043015 z"/>
<path fill="#bababa" stroke="#bababa" d="M-12.235196605014579 -26.20490491216948 L-11.995521216448031 -26.41917462394769 L-11.935404631380624 -26.467413042911385 L-12.026843393447763 -26.5937252487201 z"/>
<path fill="#bababa" stroke="#bababa" d="M25.21940580441218 14.316563552129885 L25.22279449336023 14.307300920515829 L24.7 14.25 L25.164173560127463 14.457763949527722 L25.167038300737016 14.449939178440125 L25.219405804386934 14.316563552202291 z"/>
<path fill="#bababa" stroke="#bababa" d="M-27.609494163691814 -8.916780558647503 L-27.555700130748644 -9.067538241673914 L-25.08005987395694 -13.362913262289565 L-24.964530094694517 -13.947114726224658 L-27.79005427452333 -9.041476962043015 L-27.904377555902364 -6.422561593239987 L-27.63012436650564 -8.758371881846388 z"/>
<path fill="#bababa" stroke="#bababa" d="M-24.7 14.25 L-25.220166578518874 14.307012887758484 L-25.208371053092186 14.337042630486994 L-25.164173560127463 14.457763949527722 z"/>
<path fill="#bababa" stroke="#bababa" d="M11.61111111111111 -26.02272727272727 L11.97250864458246 -26.395441446712717 L11.837569227476507 -26.477370150481654 z"/>
<path fill="#bababa" stroke="#bababa" d="M21.577553723303417 -19.464258278573574 L21.702261209576363 -19.576814945678937 L21.324075985531877 -19.62419367381331 L21.477879054221077 -19.537376216292856 z"/>
<path fill="#bababa" stroke="#bababa" d="M-16.76470588235294 23.07142857142857 L-17.09377462766672 23.4705876482572 L-17.01700950398288 23.51900956161996 L-16.95816650914496 23.55612794540048 z"/>
<path fill="#bababa" stroke="#bababa" d="M27.66639257914684 -8.75398261779113 L27.647308739503938 -8.923986137181164 L27.109090909090906 -8.821428571428571 z"/>
<path fill="#bababa" stroke="#bababa" d="M-6.0506674935869595 28.388630019440562 L-6.085034774240111 28.551641546419646 L-3.524972525256849 28.402622087764296 L-5.892173843200865 28.402622087764296 z"/>
<path fill="#bababa" stroke="#bababa" d="M-12.028430162268416 -26.592576074378357 L-12.247923743825837 -26.1937940504045 L-12.236750549593587 -26.20377940631573 z"/>
<path fill="#bababa" stroke="#bababa" d="M14.655358440905504 24.60910205855969 L17.050329418598825 23.718281874382484 L16.960794252985888 23.554470354643364 L16.95816650914496 23.55612794540048 z"/>
<path fill="#bababa" stroke="#bababa" d="M-21.57214354516558 -19.399803751679467 L-21.654453837898966 -19.26831334855656 L-21.172413793103445 -19.097560975609753 z"/>
<path fill="#bababa" stroke="#bababa" d="M-12.028430162268416 -26.592576074378357 L-12.989230943035562 -25.653361844437864 L-12.247923743825837 -26.1937940504045 z"/>
<path fill="#bababa" stroke="#bababa" d="M-25.08005987395694 -13.362913262289565 L-24.435324613630815 -14.464430415727614 L-24.964530094694517 -13.947114726224658 z"/>
<path fill="#bababa" stroke="#bababa" d="M6.062601390790201 28.386405696896496 L5.9375 27.85185185185185 L5.892173843200865 28.402622087764296 L6.050534844349729 28.38864172992351 L6.0506674935869595 28.388630019440562 L6.050821571911985 28.388601222466008 L6.051031047869347 28.38856207176903 z"/>
<path fill="#bababa" stroke="#bababa" d="M17.18226157390276 23.38380674351121 L17.093775310016962 23.470588475945327 L16.960794252985888 23.554470354643364 L17.050329418598825 23.718281874382484 L17.290412478176403 23.54432663138198 z"/>
<path fill="#bababa" stroke="#bababa" d="M-29.026865816071247 3.074653226631794 L-28.858872304654604 3.056848640461701 L-28.858884560105462 3.0566589029272455 z"/>
<path fill="#bababa" stroke="#bababa" d="M24.941583519926994 14.744432980847089 L25.31983382064718 14.606362967932645 L25.167038300737016 14.449939178440125 L25.164173560127463 14.457763949527722 L25.079962630395908 14.590606975117998 z"/>
<path fill="#bababa" stroke="#bababa" d="M-11.901620426264033 -26.67482772078049 L-11.83401221108737 -26.52272123097837 L-11.833948811620248 -26.52275089713927 z"/>
<path fill="#bababa" stroke="#bababa" d="M26.015544718873194 11.963282054344123 L25.22279449336023 14.307300920515829 L25.21940580441218 14.316563552129885 L25.373184847394086 14.466384290647444 z"/>
<path fill="#bababa" stroke="#bababa" d="M-12.026288117839226 -26.594127392043113 L-11.934955182092908 -26.467703709826456 L-11.934762909929916 -26.467858004266986 z"/>
<path fill="#bababa" stroke="#bababa" d="M11.710967037949466 -26.52098075158141 L11.901620426273062 -26.674827720777973 L11.108085383123651 -26.652782140599946 L11.686402695510933 -26.529442419925115 z"/>
<path fill="#bababa" stroke="#bababa" d="M-25.079962630395908 14.590606975117998 L-25.164173560127463 14.457763949527722 L-25.208371053092186 14.337042630486994 L-25.31983382064718 14.606362967932645 L-25.005161671694307 14.67375776762406 z"/>
<path fill="#bababa" stroke="#bababa" d="M-11.758202090676164 -26.713378135980136 L-11.725927696302811 -26.56195151112034 L-11.725876048746224 -26.561965218043248 z"/>
<path fill="#bababa" stroke="#bababa" d="M28.858884560105466 3.0566589029272455 L28.858872304654604 3.056848640461701 L29.026865816071247 3.0746532266317934 z"/>
<path fill="#bababa" stroke="#bababa" d="M-28.8588615532875 3.0570150919378456 L-28.8588615532875 3.0570150919378456 L-29.026865816071247 3.074653226631794 z"/>
<path fill="#bababa" stroke="#bababa" d="M29.026865816071247 3.0746532266317934 L28.858872304654604 3.056848640461701 L28.8588615532875 3.0570150919378456 z"/>
<path fill="#bababa" stroke="#bababa" d="M-25.2584245184284 14.201949388249888 L-26.015544718873194 11.963282054344123 L-25.373184847394086 14.466384290647444 z"/>
<path fill="#bababa" stroke="#bababa" d="M-11.757208048668756 -26.713590303047877 L-11.724952501204202 -26.562250327459488 L-11.724773490087427 -26.56229783935284 z"/>
<path fill="#bababa" stroke="#bababa" d="M-29.026865816071247 3.074653226631794 L-28.8588615532875 3.0570150919378456 L-28.858865550789723 3.056953203050688 z"/>
<path fill="#bababa" stroke="#bababa" d="M-11.75796334981214 -26.71342909252762 L-11.725693465029885 -26.562023281069088 L-11.725627217551839 -26.56204086302805 z"/>
<path fill="#bababa" stroke="#bababa" d="M11.837569227476507 -26.477370150481654 L11.97250864458246 -26.395441446712717 L12.061979225910086 -26.332723660307394 L11.901620426273062 -26.674827720777973 L11.710967037949466 -26.52098075158141 z"/>
<path fill="#bababa" stroke="#bababa" d="M24.964530094694517 -13.947114726224658 L24.14050037868041 -15.066079684288026 L24.901633676022094 -13.686351544436922 z"/>
<path fill="#bababa" stroke="#bababa" d="M-28.858838755978674 3.0571559007234037 L-28.858849062026025 3.0570922448760176 L-29.026865816071247 3.074653226631794 z"/>
<path fill="#bababa" stroke="#bababa" d="M-25.31983382064718 14.606362967932645 L-24.74920250067791 14.968128856891829 L-25.005161671694307 14.67375776762406 z"/>
<path fill="#bababa" stroke="#bababa" d="M-28.858865550789723 3.056953203050688 L-28.858872304654604 3.056848640461701 L-29.026865816071247 3.074653226631794 z"/>
<path fill="#bababa" stroke="#bababa" d="M6.085034774240111 28.551641546419646 L6.050821571911985 28.388601222466008 L6.0506674935869595 28.388630019440562 z"/>
<path fill="#bababa" stroke="#bababa" d="M-29.026865816071247 3.074653226631794 L-28.858849062026025 3.0570922448760176 L-28.8588615532875 3.0570150919378456 z"/>
<path fill="#bababa" stroke="#bababa" d="M-11.756383700496448 -26.71376625087929 L-11.724142853818952 -26.562498394038872 L-11.723635714295545 -26.56263300376432 z"/>
<path fill="#bababa" stroke="#bababa" d="M-6.085034774240111 28.551641546419646 L-6.0506674935869595 28.388630019440562 L-6.050821571911985 28.388601222466008 z"/>
<path fill="#bababa" stroke="#bababa" d="M24.964530094694517 -13.947114726224658 L24.901633676022094 -13.686351544436922 L25.430788658975928 -12.83271636015874 z"/>
<path fill="#bababa" stroke="#bababa" d="M-6.085034774240111 28.551641546419646 L-6.050821571911985 28.388601222466008 L-6.051031047869347 28.38856207176903 z"/>
<path fill="#bababa" stroke="#bababa" d="M29.026865816071247 3.0746532266317934 L28.8588615532875 3.0570150919378456 L28.8588615532875 3.0570150919378456 z"/>
<path fill="#bababa" stroke="#bababa" d="M6.0506674935869595 28.388630019440562 L6.050534844349729 28.38864172992351 L6.085034774240111 28.551641546419646 z"/>
<path fill="#bababa" stroke="#bababa" d="M-11.757659663958034 -26.71349391085165 L-11.725394950118355 -26.562114726392746 L-11.72529794045549 -26.56214047316127 z"/>
<path fill="#bababa" stroke="#bababa" d="M-11.726131492579922 -26.56188907770645 L-11.726086354626549 -26.561901056838224 L-11.758409558724214 -26.71333385426237 z"/>
<path fill="#bababa" stroke="#bababa" d="M29.026865816071247 3.0746532266317934 L28.8588615532875 3.0570150919378456 L28.858838755978674 3.0571559007234037 z"/>
<path fill="#bababa" stroke="#bababa" d="M25.22279449336023 14.307300920515829 L26.015544718873194 11.963282054344123 L28.844340554145347 3.146989445241809 L28.31578947368421 3 L24.7 14.25 z"/>
<path fill="#bababa" stroke="#bababa" d="M28.844340554145347 3.146989445241809 L28.858838755978674 3.0571559007234037 L28.8588615532875 3.0570150919378456 L28.8588615532875 3.0570150919378456 L28.858872304654604 3.056848640461701 L28.858884560105466 3.0566589029272455 L28.864024850538858 2.9770562287219415 L28.31578947368421 3 z"/>
<path fill="#bababa" stroke="#bababa" d="M-5.892173843200865 28.402622087764296 L-3.524972525256849 28.402622087764296 L5.892173843200865 28.402622087764296 L5.9375 27.85185185185185 L-5.9375 27.85185185185185 z"/>
<path fill="#bababa" stroke="#bababa" d="M27.589748361599646 -9.086300950683983 L25.430788658975928 -12.83271636015874 L24.901633676022094 -13.686351544436922 L24.14050037868041 -15.066079684288026 L21.702781666191747 -19.28543244778795 L21.172413793103445 -19.097560975609753 L27.109090909090906 -8.821428571428571 z"/>
<path fill="#bababa" stroke="#bababa" d="M0 -29.000405508505047 L-0.15553878733558438 -28.982499265098134 L0 -28.5 z"/>
<path fill="#bababa" stroke="#bababa" d="M-21.460125245776872 -19.51181391338037 L-21.57214354516558 -19.399803751679467 L-21.172413793103445 -19.097560975609753 z"/>
<path fill="#bababa" stroke="#bababa" d="M-16.76470588235294 23.07142857142857 L-17.210855855332827 23.355761575822164 L-17.09377462766672 23.4705876482572 z"/>
<path fill="#bababa" stroke="#bababa" d="M24.7 14.25 L25.079962630395908 14.590606975117998 L25.164173560127463 14.457763949527722 z"/>
<path fill="#bababa" stroke="#bababa" d="M-27.609494163691814 -8.916780558647503 L-27.63012436650564 -8.758371881846388 L-27.109090909090906 -8.821428571428571 z"/>
<path fill="#bababa" stroke="#bababa" d="M0 -28.5 L0.1555387873355844 -28.982499265098134 L0 -29.000405508505047 z"/>
<path fill="#bababa" stroke="#bababa" d="M-5.9375 27.85185185185185 L-6.224251377208123 28.326564315308172 L-6.062601390790201 28.386405696896496 z"/>
<path fill="#bababa" stroke="#bababa" d="M6.062601390790201 28.386405696896496 L6.224251377208123 28.326564315308172 L5.9375 27.85185185185185 z"/>
<path fill="#bababa" stroke="#bababa" d="M-27.109090909090906 -8.821428571428571 L-27.555700130748644 -9.067538241673914 L-27.609494163691814 -8.916780558647503 z"/>
<path fill="#bababa" stroke="#bababa" d="M-24.7 14.25 L-25.164173560127463 14.457763949527722 L-25.079962630395908 14.590606975117998 z"/>
<path fill="#bababa" stroke="#bababa" d="M21.172413793103445 -19.097560975609753 L21.611185416045796 -19.429324004742735 L21.577553723303417 -19.464258278573574 L21.477879054221077 -19.537376216292856 z"/>
<path fill="#bababa" stroke="#bababa" d="M-5.938984822555805 27.851196273636177 L-16.76470588235294 23.07142857142857 L-16.95816650914496 23.55612794540048 L-14.655358440905504 24.60910205855969 L-6.224251377208123 28.326564315308172 L-5.9375 27.85185185185185 z"/>
<path fill="#bababa" stroke="#bababa" d="M-0.15553878733558438 -28.982499265098134 L-10.811711567530017 -26.714257763107774 L-11.69257345840885 -26.570971882415048 L-11.61111111111111 -26.02272727272727 L0 -28.5 z"/>
<path fill="#bababa" stroke="#bababa" d="M0.1555387873355844 -28.982499265098134 L0 -28.5 L11.61111111111111 -26.02272727272727 L11.686402695510933 -26.529442419925115 L11.108085383123651 -26.652782140599946 L10.956978733932235 -26.690627800125828 L10.811711567530097 -26.714257763107767 z"/>
<path fill="#bababa" stroke="#bababa" d="M21.611185416045796 -19.429324004742735 L21.172413793103445 -19.097560975609753 L21.702781666191747 -19.28543244778795 L21.648711987471806 -19.37349082827855 z"/>
<path fill="#bababa" stroke="#bababa" d="M28.31571627566254 2.9992829152116927 L28.31578947368421 3 L28.864024850538858 2.9770562287219415 L27.904377555902368 -6.422561593239985 L27.66639257914684 -8.75398261779113 L27.109090909090906 -8.821428571428571 z"/>
<path fill="#bababa" stroke="#bababa" d="M-28.858872304654604 3.056848640461701 L-28.858865550789723 3.056953203050688 L-28.8588615532875 3.0570150919378456 L-28.8588615532875 3.0570150919378456 L-28.858849062026025 3.0570922448760176 L-28.858838755978674 3.0571559007234037 L-28.844340554145347 3.146989445241809 L-28.31578947368421 3 L-28.864024850538858 2.977056228721942 L-28.858884560105462 3.0566589029272455 z"/>
<path fill="#bababa" stroke="#bababa" d="M-27.109090909090906 -8.821428571428571 L-21.172413793103445 -19.097560975609753 L-21.654453837898966 -19.26831334855656 L-24.435324613630815 -14.464430415727614 L-25.08005987395694 -13.362913262289565 L-27.555700130748644 -9.067538241673914 z"/>
<path fill="#bababa" stroke="#bababa" d="M-24.74920250067791 14.968128856891829 L-17.23667629782949 23.327800867145122 L-17.210855855332827 23.355761575822164 L-16.76470588235294 23.07142857142857 L-24.7 14.25 L-25.079962630395908 14.590606975117998 L-25.005161671694307 14.67375776762406 z"/>
<path fill="#bababa" stroke="#bababa" d="M-11.995521216448031 -26.41917462394769 L-12.235196605014579 -26.20490491216948 L-12.236750549593587 -26.20377940631573 L-12.247923743825837 -26.1937940504045 L-12.989230943035562 -25.653361844437864 L-21.460125245776872 -19.51181391338037 L-21.172413793103445 -19.097560975609753 L-11.61111111111111 -26.02272727272727 z"/>
<path fill="#bababa" stroke="#bababa" d="M-11.61111111111111 -26.02272727272727 L-11.856004718189917 -26.514381694537928 L-11.934513856591108 -26.46801907453002 L-11.934762909929916 -26.467858004266986 L-11.934955182092908 -26.467703709826456 L-11.935404631380624 -26.467413042911385 L-11.995521216448031 -26.41917462394769 z"/>
<path fill="#bababa" stroke="#bababa" d="M-6.062601390790201 28.386405696896496 L-6.051031047869347 28.38856207176903 L-6.050821571911985 28.388601222466008 L-6.0506674935869595 28.388630019440562 L-5.892173843200865 28.402622087764296 L-5.9375 27.85185185185185 z"/>
<path fill="#bababa" stroke="#bababa" d="M27.647308739503938 -8.923986137181164 L27.628407833720953 -8.989242082822267 L27.589748361599646 -9.086300950683983 L27.109090909090906 -8.821428571428571 z"/>
<path fill="#bababa" stroke="#bababa" d="M11.710967037949466 -26.52098075158141 L11.686402695510933 -26.529442419925115 L11.61111111111111 -26.02272727272727 L11.837569227476507 -26.477370150481654 z"/>
<path fill="#bababa" stroke="#bababa" d="M14.655358440905504 24.60910205855969 L16.95816650914496 23.55612794540048 L16.76470588235294 23.07142857142857 L5.9375 27.85185185185185 L6.224251377208123 28.326564315308172 z"/>
<path fill="#bababa" stroke="#bababa" d="M17.093775310016962 23.470588475945327 L17.18226157390276 23.38380674351121 L17.210388196571948 23.355463535188825 L16.76470588235294 23.07142857142857 z"/>
<path fill="#bababa" stroke="#bababa" d="M16.960794252985888 23.554470354643364 L17.093775310016962 23.470588475945327 L16.76470588235294 23.07142857142857 L16.95816650914496 23.55612794540048 z"/>
<path fill="#bababa" stroke="#bababa" d="M-26.015544718873194 11.963282054344123 L-25.2584245184284 14.201949388249888 L-25.258424518404873 14.20194938832309 L-25.220166578518874 14.307012887758484 L-24.7 14.25 L-28.31578947368421 3 L-28.844340554145347 3.146989445241809 z"/>
<path fill="#bababa" stroke="#bababa" d="M11.97250864458246 -26.395441446712717 L11.61111111111111 -26.02272727272727 L21.172413793103445 -19.097560975609753 L21.477879054221077 -19.537376216292856 L21.324075985531877 -19.62419367381331 L12.061979225910086 -26.332723660307394 z"/>
<path fill="#bababa" stroke="#bababa" d="M11.611111111111109 -26.021739130434778 L0 -28.5 L0 -28.5 L8.5512701230203 -26.67482772077827 L11.141127232498697 -26.1220518950398 L11.611111111111109 -26.021739130434778 z"/>
<path fill="#bababa" stroke="#bababa" d="M8.782264987754992 26.59614273267961 L6.0850347742401105 28.551641546419646 L7.227899651966865 27.282485867962677 z"/>
<path fill="#bababa" stroke="#bababa" d="M24.699999999999996 14.25 L27.88428495587747 4.343493502566745 L29.026865816071247 3.074653226631794 L25.31983382064718 14.606362967932645 L22.616183382830123 16.56651646073713 z"/>
<path fill="#bababa" stroke="#bababa" d="M8.782264987754992 26.59614273267961 L16.76470588235294 23.071428571428566 L22.616183382830123 16.56651646073713 L25.31983382064718 14.606362967932645 L17.18422560220658 23.65042565217986 L6.0850347742401105 28.551641546419646 z"/>
<path fill="#bababa" stroke="#bababa" d="M-28.06864728426212 3.769930951057843 L-29.026865816071247 3.074653226631794 L-28.292132970020287 3.074653226631794 z"/>
<path fill="#bababa" stroke="#bababa" d="M29.026865816071247 3.074653226631794 L27.88428495587747 4.343493502566745 L28.292132970020287 3.074653226631794 z"/>
<path fill="#bababa" stroke="#bababa" d="M5.121177973521735 27.852272727272723 L5.937499999999999 27.852272727272723 L7.227899651966865 27.282485867962677 L6.0850347742401105 28.551641546419646 z"/>
<path fill="#bababa" stroke="#bababa" d="M-27.88428495587747 4.343493502566745 L-29.026865816071247 3.074653226631794 L-28.06864728426212 3.769930951057843 z"/>
<path fill="#bababa" stroke="#bababa" d="M-7.227899651966865 27.282485867962677 L-5.937499999999999 27.852272727272723 L5.121177973521735 27.852272727272723 L6.0850347742401105 28.551641546419646 L-6.0850347742401105 28.551641546419646 z"/>
<path fill="#bababa" stroke="#bababa" d="M-11.83401221108737 -26.52272123097837 L-11.856004718189917 -26.514381694537928 L-11.61111111111111 -26.02272727272727 L-11.69257345840885 -26.570971882415048 L-11.72187339788783 -26.56319348599353 L-11.723635714295545 -26.56263300376432 L-11.724142853818952 -26.562498394038872 L-11.724773490087427 -26.56229783935284 L-11.724952501204202 -26.562250327459488 L-11.72529794045549 -26.56214047316127 L-11.725394950118355 -26.562114726392746 L-11.725627217551839 -26.56204086302805 L-11.725693465029885 -26.562023281069088 L-11.725876048746224 -26.561965218043248 L-11.725927696302811 -26.56195151112034 L-11.726086354626549 -26.561901056838224 L-11.726131492579922 -26.56188907770645 L-11.726283797882523 -26.56184064396172 L-11.833948811620248 -26.52275089713927 z"/>
<path fill="#bababa" stroke="#bababa" d="M-22.616183382830123 16.56651646073713 L-16.76470588235294 23.071428571428566 L-8.782264987754992 26.59614273267961 L-6.0850347742401105 28.551641546419646 L-17.18422560220658 23.65042565217986 L-25.31983382064718 14.606362967932645 z"/>
<path fill="#bababa" stroke="#bababa" d="M24.352291383767817 -13.59332981862851 L27.10975609756097 -8.82142857142857 L28.31612903225806 2.9999999999999996 L24.70000000002471 14.249999999923123 L28.31578947368421 3 L27.109090909090906 -8.821428571428571 z"/>
<path fill="#bababa" stroke="#bababa" d="M-5.9375 27.85185185185185 L5.9375 27.85185185185185 L16.764705882249693 23.071428571474154 L5.937499999999999 27.852272727272723 L-5.937499999999999 27.852272727272723 L-16.764705882249693 23.071428571474154 z"/>
<path fill="#bababa" stroke="#bababa" d="M-24.352291383767817 -13.59332981862851 L-27.109090909090906 -8.821428571428571 L-28.31578947368421 3 L-24.70000000002471 14.249999999923123 L-28.31612903225806 2.9999999999999996 L-27.10975609756097 -8.82142857142857 z"/>
<path fill="#bababa" stroke="#bababa" d="M-24.699999999999996 14.25 L-24.70000000002471 14.249999999923123 L-24.7 14.25 L-16.76470588235294 23.07142857142857 L-16.764705882249693 23.071428571474154 L-16.76470588235294 23.071428571428566 z"/>
<path fill="#bababa" stroke="#bababa" d="M24.699999999999996 14.249999999999996 L24.699999999999996 14.25 L16.76470588235294 23.071428571428566 L16.764705882249693 23.071428571474154 L16.76470588235294 23.07142857142857 L24.7 14.25 L24.70000000002471 14.249999999923123 z"/>
<path fill="#bababa" stroke="#bababa" d="M-11.608784307292703 -26.022235760498788 L0 -28.5 L-11.61111111111111 -26.02272727272727 L-21.172413793103445 -19.097560975609753 L-24.352291383767817 -13.59332981862851 L-21.171428571428567 -19.097938144329895 L-11.611111111111109 -26.021739130434778 z"/>
<path fill="#bababa" stroke="#bababa" d="M21.171428571428567 -19.097938144329895 L24.352291383767817 -13.59332981862851 L21.172413793103445 -19.097560975609753 L11.61111111111111 -26.02272727272727 L0 -28.5 L11.611111111111109 -26.021739130434778 z"/>
<path fill="#bababa" stroke="#bababa" d="M-8.782264987754992 26.59614273267961 L-7.227899651966865 27.282485867962677 L-6.0850347742401105 28.551641546419646 z"/>
<path fill="#bababa" stroke="#bababa" d="M-27.88428495587747 4.343493502566745 L-24.699999999999996 14.25 L-22.616183382830123 16.56651646073713 L-25.31983382064718 14.606362967932645 L-29.026865816071247 3.074653226631794 z"/>
<path fill="#bababa" stroke="#bababa" d="M28.292132970020287 3.074653226631794 L28.31612903225806 2.9999999999999996 L28.172241500528088 1.590024585480165 L29.026865816071247 3.074653226631794 z"/>
<path fill="#bababa" stroke="#bababa" d="M11.141127232498697 -26.1220518950398 L11.901620426273062 -26.674827720777973 L12.754064932420125 -25.193985781458757 L11.611111111111109 -26.021739130434778 z"/>
<path fill="#bababa" stroke="#bababa" d="M-28.26741402414047 2.522634359363109 L-28.31612903225806 2.9999999999999996 L-28.292132970020287 3.074653226631794 L-29.026865816071247 3.074653226631794 z"/>
<path fill="#bababa" stroke="#bababa" d="M17.210388196571948 23.355463535188825 L24.735144388894255 14.98219918948831 L24.941583519926994 14.744432980847089 L25.079962630395908 14.590606975117998 L24.7 14.25 L16.76470588235294 23.07142857142857 z"/>
<path fill="#bababa" stroke="#bababa" d="M-21.171428571428567 -19.097938144329895 L-27.10975609756097 -8.82142857142857 L-27.10975609756097 -8.82142857142857 L-22.7283448995438 -16.40363314352388 L-21.171428571428567 -19.097938144329895 z"/>
<path fill="#bababa" stroke="#bababa" d="M16.76470588235294 23.071428571428566 L24.699999999999996 14.25 L24.699999999999996 14.25 L22.616183382830123 16.56651646073713 L16.76470588235294 23.071428571428566 z"/>
<path fill="#bababa" stroke="#bababa" d="M27.999530060682982 -0.10240060981002487 L27.10975609756097 -8.82142857142857 L22.728344899550763 -16.403633143511826 L21.702261209589636 -19.57681494566699 L27.79005427452333 -9.041476962043015 L29.026865816071247 3.074653226631794 z"/>
<path fill="#bababa" stroke="#bababa" d="M11.611111111111109 -26.021739130434778 L12.754064932420125 -25.193985781458757 L21.171428571428567 -19.097938144329895 L21.171428571428567 -19.097938144329895 L11.611111111111109 -26.021739130434778 z"/>
<path fill="#bababa" stroke="#bababa" d="M27.999530060682982 -0.10240060981002487 L29.026865816071247 3.074653226631794 L28.172241500528088 1.590024585480165 z"/>
<path fill="#bababa" stroke="#bababa" d="M21.171428571428567 -19.097938144329895 L12.754064932420125 -25.193985781458757 L11.901620426273062 -26.674827720777973 L21.702261209589636 -19.57681494566699 L22.728344899550763 -16.403633143511826 z"/>
<path fill="#bababa" stroke="#bababa" d="M24.699999999999996 14.25 L28.31612903225806 2.9999999999999996 L28.31612903225806 2.9999999999999996 L28.292132970020287 3.074653226631794 L27.88428495587747 4.343493502566745 L24.699999999999996 14.25 z"/>
<path fill="#bababa" stroke="#bababa" d="M-11.611111111111109 -26.021739130434778 L-21.171428571428567 -19.097938144329895 L-21.171428571428567 -19.097938144329895 L-12.754064932416071 -25.193985781461695 L-11.611111111111109 -26.021739130434778 z"/>
<path fill="#bababa" stroke="#bababa" d="M8.5512701230203 -26.67482772077827 L11.901620426273062 -26.674827720777973 L11.141127232498697 -26.1220518950398 z"/>
<path fill="#bababa" stroke="#bababa" d="M-29.026865816071247 3.074653226631794 L-28.172241500528116 1.5900245854804271 L-28.26741402414047 2.522634359363109 z"/>
<path fill="#bababa" stroke="#bababa" d="M-8.55127012301311 -26.674827720779806 L-11.611111111111109 -26.021739130434778 L-12.754064932416071 -25.193985781461695 L-11.901620426269345 -26.674827720780108 z"/>
<path fill="#bababa" stroke="#bababa" d="M25.31983382064718 14.606362967932645 L24.941583519926994 14.744432980847089 L24.735144388894255 14.98219918948831 z"/>
<path fill="#bababa" stroke="#bababa" d="M-28.315632807645354 2.9984652203605346 L-27.109090909090906 -8.821428571428571 L-27.63012436650564 -8.758371881846388 L-27.904377555902364 -6.422561593239987 L-28.864024850538858 2.977056228721942 L-28.31578947368421 3 z"/>
<path fill="#bababa" stroke="#bababa" d="M-28.31612903225806 2.9999999999999996 L-24.699999999999996 14.25 L-24.699999999999996 14.25 L-27.88428495587747 4.343493502566745 L-28.06864728426212 3.769930951057843 L-28.292132970020287 3.074653226631794 L-28.31612903225806 2.9999999999999996 z"/>
<path fill="#bababa" stroke="#bababa" d="M-28.172241500528116 1.5900245854804271 L-27.999530060683213 -0.10240060980776457 L-27.10975609756097 -8.82142857142857 L-27.10975609756097 -8.82142857142857 L-28.31612903225806 2.9999999999999996 L-28.31612903225806 2.9999999999999996 L-28.26741402414047 2.522634359363109 z"/>
<path fill="#bababa" stroke="#bababa" d="M-24.699999999999996 14.25 L-16.76470588235294 23.071428571428566 L-16.76470588235294 23.071428571428566 L-22.616183382830123 16.56651646073713 L-24.699999999999996 14.25 z"/>
<path fill="#bababa" stroke="#bababa" d="M0 -28.5 L-11.611111111111109 -26.021739130434778 L-11.611111111111109 -26.021739130434778 L-8.55127012301311 -26.674827720779806 L0 -28.5 z"/>
<path fill="#bababa" stroke="#bababa" d="M-29.026865816071247 3.074653226631794 L-27.999530060683213 -0.10240060980776457 L-28.172241500528116 1.5900245854804271 z"/>
<path fill="#bababa" stroke="#bababa" d="M-22.7283448995438 -16.40363314352388 L-21.70226120958323 -19.57681494567577 L-11.901620426269345 -26.674827720780108 L-12.754064932416071 -25.193985781461695 L-21.171428571428567 -19.097938144329895 z"/>
<path fill="#bababa" stroke="#bababa" d="M-25.373184847394086 14.466384290647444 L-29.026865816071247 3.074653226631794 L-25.31983382064718 14.606362967932645 z"/>
<path fill="#bababa" stroke="#bababa" d="M-25.373184847369373 14.466384290724317 L-25.373184847394086 14.466384290647444 L-25.31983382064718 14.606362967932645 z"/>
<path fill="#bababa" stroke="#bababa" d="M17.050329418598825 23.718281874382484 L6.085034774240111 28.551641546419646 L17.18422560220658 23.65042565217986 z"/>
<path fill="#bababa" stroke="#bababa" d="M11.754080874685215 -26.714257763107767 L11.901620426273062 -26.674827720777973 L5.323782403816118e-16 -29.21493732675278 z"/>
<path fill="#bababa" stroke="#bababa" d="M25.430788658975928 -12.83271636015874 L27.589748361599646 -9.086300950683983 L27.628407833720953 -8.989242082822267 L27.79005427452333 -9.041476962043015 L24.964530094694517 -13.947114726224658 z"/>
<path fill="#bababa" stroke="#bababa" d="M27.904377555902368 -6.422561593239985 L28.864024850538858 2.9770562287219415 L28.858884560105466 3.0566589029272455 L29.026865816071247 3.0746532266317934 L27.79005427452333 -9.041476962043015 z"/>
<path fill="#bababa" stroke="#bababa" d="M21.783778551517948 -19.451530496252246 L21.702261209576363 -19.576814945678937 L21.577553723303417 -19.464258278573574 L21.611185416045796 -19.429324004742735 L21.648711987471806 -19.37349082827855 z"/>
<path fill="#bababa" stroke="#bababa" d="M0.1555387873355844 -28.982499265098134 L10.811711567530097 -26.714257763107767 L11.754080874685215 -26.714257763107767 L5.323782403816118e-16 -29.21493732675278 L-11.754080874685217 -26.714257763107778 L-10.811711567530017 -26.714257763107774 L-0.15553878733558438 -28.982499265098134 L0 -29.000405508505047 z"/>
<path fill="#bababa" stroke="#bababa" d="M11.901620426273062 -26.674827720777973 L11.754080874685215 -26.714257763107767 L10.956978733932235 -26.690627800125828 L11.108085383123651 -26.652782140599946 z"/>
<path fill="#bababa" stroke="#bababa" d="M-11.754080874685217 -26.714257763107778 L-11.756383700496448 -26.71376625087929 L-11.723635714295545 -26.56263300376432 L-11.72187339788783 -26.56319348599353 z"/>
<path fill="#bababa" stroke="#bababa" d="M-11.756383700496448 -26.71376625087929 L-11.757208048668756 -26.713590303047877 L-11.724773490087427 -26.56229783935284 L-11.724142853818952 -26.562498394038872 z"/>
<path fill="#bababa" stroke="#bababa" d="M-11.901620426264033 -26.67482772078049 L-11.833948811620248 -26.52275089713927 L-11.726283797882523 -26.56184064396172 L-11.758608729251362 -26.71329134355569 z"/>
<path fill="#bababa" stroke="#bababa" d="M-11.726131492579922 -26.56188907770645 L-11.758409558724214 -26.71333385426237 L-11.758608729251362 -26.71329134355569 L-11.726283797882523 -26.56184064396172 z"/>
<path fill="#bababa" stroke="#bababa" d="M-11.758202090676164 -26.713378135980136 L-11.758409558724214 -26.71333385426237 L-11.726086354626549 -26.561901056838224 L-11.725927696302811 -26.56195151112034 z"/>
<path fill="#bababa" stroke="#bababa" d="M-11.75796334981214 -26.71342909252762 L-11.758202090676164 -26.713378135980136 L-11.725876048746224 -26.561965218043248 L-11.725693465029885 -26.562023281069088 z"/>
<path fill="#bababa" stroke="#bababa" d="M-11.757659663958034 -26.71349391085165 L-11.75796334981214 -26.71342909252762 L-11.725627217551839 -26.56204086302805 L-11.725394950118355 -26.562114726392746 z"/>
<path fill="#bababa" stroke="#bababa" d="M-11.757208048668756 -26.713590303047877 L-11.757659663958034 -26.71349391085165 L-11.72529794045549 -26.56214047316127 L-11.724952501204202 -26.562250327459488 z"/>
<path fill="#bababa" stroke="#bababa" d="M-11.754080874685217 -26.714257763107778 L5.323782403816118e-16 -29.21493732675278 L-11.901620426269345 -26.674827720780108 z"/>
<path fill="#bababa" stroke="#bababa" d="M-11.756383700496448 -26.71376625087929 L-11.754080874685217 -26.714257763107778 L-11.901620426269345 -26.674827720780108 z"/>
<path fill="#bababa" stroke="#bababa" d="M-11.757208048668756 -26.713590303047877 L-11.756383700496448 -26.71376625087929 L-11.901620426269345 -26.674827720780108 z"/>
<path fill="#bababa" stroke="#bababa" d="M-11.757659663958034 -26.71349391085165 L-11.757208048668756 -26.713590303047877 L-11.901620426269345 -26.674827720780108 z"/>
<path fill="#bababa" stroke="#bababa" d="M-11.75796334981214 -26.71342909252762 L-11.757659663958034 -26.71349391085165 L-11.901620426269345 -26.674827720780108 z"/>
<path fill="#bababa" stroke="#bababa" d="M-11.758202090676164 -26.713378135980136 L-11.75796334981214 -26.71342909252762 L-11.901620426269345 -26.674827720780108 z"/>
<path fill="#bababa" stroke="#bababa" d="M-11.758409558724214 -26.71333385426237 L-11.758202090676164 -26.713378135980136 L-11.901620426269345 -26.674827720780108 z"/>
<path fill="#bababa" stroke="#bababa" d="M-11.758608729251362 -26.71329134355569 L-11.758409558724214 -26.71333385426237 L-11.901620426269345 -26.674827720780108 z"/>
<path fill="#bababa" stroke="#bababa" d="M17.290412478176403 23.54432663138198 L17.18422560220658 23.65042565217986 L25.31983382064718 14.606362967932645 z"/>
<path fill="#bababa" stroke="#bababa" d="M-21.654453837898966 -19.26831334855656 L-21.57214354516558 -19.399803751679467 L-21.460125245776872 -19.51181391338037 L-12.989230943035562 -25.653361844437864 L-12.028430162268416 -26.592576074378357 L-21.702261209589636 -19.57681494566699 L-24.964530094694517 -13.947114726224658 L-24.435324613630815 -14.464430415727614 z"/>
<path fill="#bababa" stroke="#bababa" d="M-28.858884560105462 3.0566589029272455 L-28.864024850538858 2.977056228721942 L-27.904377555902364 -6.422561593239987 L-27.79005427452333 -9.041476962043015 L-29.026865816071247 3.074653226631794 z"/>
<path fill="#bababa" stroke="#bababa" d="M-25.31983382064718 14.606362967932645 L-17.290412478176403 23.54432663138198 L-17.23667629782949 23.327800867145122 L-24.74920250067791 14.968128856891829 z"/>
<path fill="#bababa" stroke="#bababa" d="M-17.050329418598825 23.718281874382484 L-17.290412478176403 23.54432663138198 L-17.18422560220658 23.65042565217986 z"/>
<path fill="#bababa" stroke="#bababa" d="M-6.051031047869347 28.38856207176903 L-6.062601390790201 28.386405696896496 L-6.224251377208123 28.326564315308172 L-14.655358440905504 24.60910205855969 L-17.050329418598825 23.718281874382484 L-6.085034774240111 28.551641546419646 z"/>
<path fill="#bababa" stroke="#bababa" d="M-17.050329418598825 23.718281874382484 L-17.18422560220658 23.65042565217986 L-6.0850347742401105 28.551641546419646 z"/>
<path fill="#bababa" stroke="#bababa" d="M-26.015544718873194 11.963282054344123 L-28.844340554145347 3.146989445241809 L-28.858838755978674 3.0571559007234037 L-29.026865816071247 3.074653226631794 L-25.373184847394086 14.466384290647444 z"/>
<path fill="#bababa" stroke="#bababa" d="M-25.2584245184284 14.201949388249888 L-25.373184847394086 14.466384290647444 L-25.373184847369373 14.466384290724317 L-25.258424518404873 14.20194938832309 z"/>
<path fill="#bababa" stroke="#bababa" d="M14.655358440905504 24.60910205855969 L6.224251377208123 28.326564315308172 L6.062601390790201 28.386405696896496 L6.051031047869347 28.38856207176903 L6.085034774240111 28.551641546419646 L17.050329418598825 23.718281874382484 z"/>
<path fill="#bababa" stroke="#bababa" d="M24.735144388894255 14.98219918948831 L17.210388196571948 23.355463535188825 L17.18226157390276 23.38380674351121 L17.290412478176403 23.54432663138198 L25.31983382064718 14.606362967932645 z"/>
<path fill="#bababa" stroke="#bababa" d="M17.050329418598825 23.718281874382484 L17.18422560220658 23.65042565217986 L17.290412478176403 23.54432663138198 z"/>
<path fill="#bababa" stroke="#bababa" d="M28.858838755978674 3.0571559007234037 L28.844340554145347 3.146989445241809 L26.015544718873194 11.963282054344123 L25.373184847394086 14.466384290647444 L29.026865816071247 3.0746532266317934 z"/>
<path fill="#bababa" stroke="#bababa" d="M25.219405804386934 14.316563552202291 L25.373184847369373 14.466384290724319 L25.373184847394086 14.466384290647444 L25.21940580441218 14.316563552129885 z"/>
<path fill="#bababa" stroke="#bababa" d="M25.31983382064718 14.606362967932645 L25.373184847369373 14.466384290724319 L25.219405804386934 14.316563552202291 L25.167038300737016 14.449939178440125 z"/>
<path fill="#bababa" stroke="#bababa" d="M24.964530094694517 -13.947114726224658 L27.79005427452333 -9.041476962043015 L21.702261209589636 -19.57681494566699 z"/>
<path fill="#bababa" stroke="#bababa" d="M21.783778551517948 -19.451530496252246 L24.964530094694517 -13.947114726224658 L21.702261209589636 -19.57681494566699 z"/>
<path fill="#bababa" stroke="#bababa" d="M-24.964530094694517 -13.947114726224658 L-21.702261209589636 -19.57681494566699 L-27.79005427452333 -9.041476962043015 z"/>
<path fill="#bababa" stroke="#bababa" d="M25.373184847369373 14.466384290724319 L25.31983382064718 14.606362967932645 L29.026865816071247 3.074653226631794 z"/>
<path fill="#bababa" stroke="#bababa" d="M25.373184847394086 14.466384290647444 L25.373184847369373 14.466384290724319 L29.026865816071247 3.074653226631794 z"/>
<path fill="#bababa" stroke="#bababa" d="M-12.026843393447763 -26.5937252487201 L-12.028430162268416 -26.592576074378357 L-12.236750549593587 -26.20377940631573 L-12.235196605014579 -26.20490491216948 z"/>
<path fill="#bababa" stroke="#bababa" d="M-12.026843393447763 -26.5937252487201 L-11.935404631380624 -26.467413042911385 L-11.934955182092908 -26.467703709826456 L-12.026288117839226 -26.594127392043113 z"/>
<path fill="#bababa" stroke="#bababa" d="M-11.934513856591108 -26.46801907453002 L-11.856004718189917 -26.514381694537928 L-11.83401221108737 -26.52272123097837 L-11.901620426264033 -26.67482772078049 L-12.025980367466468 -26.594350271915378 z"/>
<path fill="#bababa" stroke="#bababa" d="M-11.934513856591108 -26.46801907453002 L-12.025980367466468 -26.594350271915378 L-12.026288117839226 -26.594127392043113 L-11.934762909929916 -26.467858004266986 z"/>
<path fill="#bababa" stroke="#bababa" d="M-17.290412478176403 23.54432663138198 L-25.31983382064718 14.606362967932645 L-17.18422560220658 23.65042565217986 z"/>
<path fill="#bababa" stroke="#bababa" d="M-12.025980367466468 -26.594350271915378 L-11.901620426264033 -26.67482772078049 L-21.70226120958323 -19.57681494567577 z"/>
<path fill="#bababa" stroke="#bababa" d="M-12.026288117839226 -26.594127392043113 L-12.025980367466468 -26.594350271915378 L-21.70226120958323 -19.57681494567577 z"/>
<path fill="#bababa" stroke="#bababa" d="M-12.026843393447763 -26.5937252487201 L-12.026288117839226 -26.594127392043113 L-21.70226120958323 -19.57681494567577 z"/>
<path fill="#bababa" stroke="#bababa" d="M-12.028430162268416 -26.592576074378357 L-12.026843393447763 -26.5937252487201 L-21.70226120958323 -19.57681494567577 z"/>
<path fill="#bababa" stroke="#bababa" d="M5.323782403816118e-16 -29.21493732675278 L5.323782403816118e-16 -29.21493732675278 L-11.901620426269345 -26.674827720780108 z"/>
<path fill="#bababa" stroke="#bababa" d="M-11.901620426269345 -26.674827720780108 L-11.901620426264033 -26.67482772078049 L-11.758608729251362 -26.71329134355569 z"/>
<path fill="#bababa" stroke="#bababa" d="M11.901620426273062 -26.674827720777973 L11.901620426273062 -26.674827720777973 L5.323782403816118e-16 -29.21493732675278 z"/>
<path fill="#bababa" stroke="#bababa" d="M5.323782403816118e-16 -29.21493732675278 L5.323782403816118e-16 -29.21493732675278 L11.754080874685215 -26.714257763107767 z"/>
<path fill="#bababa" stroke="#bababa" d="M21.702261209576363 -19.576814945678937 L21.702261209589636 -19.57681494566699 L11.901620426273062 -26.674827720777973 z"/>
<path fill="#bababa" stroke="#bababa" d="M11.901620426273062 -26.674827720777973 L11.901620426273062 -26.674827720777973 L21.702261209576363 -19.576814945678937 z"/>
<path fill="#bababa" stroke="#bababa" d="M27.79005427452333 -9.041476962043015 L27.79005427452333 -9.041476962043015 L21.702261209589636 -19.57681494566699 z"/>
<path fill="#bababa" stroke="#bababa" d="M21.702261209589636 -19.57681494566699 L21.702261209576363 -19.576814945678937 L21.783778551517948 -19.451530496252246 z"/>
<path fill="#bababa" stroke="#bababa" d="M29.026865816071247 3.0746532266317934 L29.026865816071247 3.074653226631794 L27.79005427452333 -9.041476962043015 z"/>
<path fill="#bababa" stroke="#bababa" d="M27.79005427452333 -9.041476962043015 L27.79005427452333 -9.041476962043015 L29.026865816071247 3.0746532266317934 z"/>
<path fill="#bababa" stroke="#bababa" d="M25.31983382064718 14.606362967932645 L25.31983382064718 14.606362967932645 L29.026865816071247 3.074653226631794 z"/>
<path fill="#bababa" stroke="#bababa" d="M29.026865816071247 3.074653226631794 L29.026865816071247 3.0746532266317934 L25.373184847394086 14.466384290647444 z"/>
<path fill="#bababa" stroke="#bababa" d="M17.18422560220658 23.65042565217986 L17.18422560220658 23.65042565217986 L25.31983382064718 14.606362967932645 z"/>
<path fill="#bababa" stroke="#bababa" d="M25.31983382064718 14.606362967932645 L25.31983382064718 14.606362967932645 L17.290412478176403 23.54432663138198 z"/>
<path fill="#bababa" stroke="#bababa" d="M6.085034774240111 28.551641546419646 L6.0850347742401105 28.551641546419646 L17.18422560220658 23.65042565217986 z"/>
<path fill="#bababa" stroke="#bababa" d="M17.18422560220658 23.65042565217986 L17.18422560220658 23.65042565217986 L17.050329418598825 23.718281874382484 z"/>
<path fill="#bababa" stroke="#bababa" d="M-6.085034774240111 28.551641546419646 L-6.0850347742401105 28.551641546419646 L6.0850347742401105 28.551641546419646 z"/>
<path fill="#bababa" stroke="#bababa" d="M6.0850347742401105 28.551641546419646 L6.085034774240111 28.551641546419646 L-6.085034774240111 28.551641546419646 z"/>
<path fill="#bababa" stroke="#bababa" d="M-29.026865816071247 3.074653226631794 L-29.026865816071247 3.074653226631794 L-25.31983382064718 14.606362967932645 z"/>
<path fill="#bababa" stroke="#bababa" d="M-25.31983382064718 14.606362967932645 L-25.31983382064718 14.606362967932645 L-25.373184847369373 14.466384290724317 z"/>
<path fill="#bababa" stroke="#bababa" d="M-17.18422560220658 23.65042565217986 L-17.18422560220658 23.65042565217986 L-6.0850347742401105 28.551641546419646 z"/>
<path fill="#bababa" stroke="#bababa" d="M-6.0850347742401105 28.551641546419646 L-6.085034774240111 28.551641546419646 L-17.050329418598825 23.718281874382484 z"/>
<path fill="#bababa" stroke="#bababa" d="M-25.31983382064718 14.606362967932645 L-25.31983382064718 14.606362967932645 L-17.18422560220658 23.65042565217986 z"/>
<path fill="#bababa" stroke="#bababa" d="M-17.18422560220658 23.65042565217986 L-17.18422560220658 23.65042565217986 L-17.290412478176403 23.54432663138198 z"/>
<path fill="#bababa" stroke="#bababa" d="M-11.901620426264033 -26.67482772078049 L-11.901620426269345 -26.674827720780108 L-21.70226120958323 -19.57681494567577 z"/>
<path fill="#bababa" stroke="#bababa" d="M-21.70226120958323 -19.57681494567577 L-21.702261209589636 -19.57681494566699 L-12.028430162268416 -26.592576074378357 z"/>
<path fill="#bababa" stroke="#bababa" d="M-27.79005427452333 -9.041476962043015 L-27.79005427452333 -9.041476962043015 L-29.026865816071247 3.074653226631794 z"/>
<path fill="#bababa" stroke="#bababa" d="M-29.026865816071247 3.074653226631794 L-29.026865816071247 3.074653226631794 L-27.79005427452333 -9.041476962043015 z"/>
<path fill="#bababa" stroke="#bababa" d="M-21.702261209589636 -19.57681494566699 L-21.70226120958323 -19.57681494567577 L-27.79005427452333 -9.041476962043015 z"/>
<path fill="#bababa" stroke="#bababa" d="M-27.79005427452333 -9.041476962043015 L-27.79005427452333 -9.041476962043015 L-24.964530094694517 -13.947114726224658 z"/>
<path fill="#bababa" stroke="#bababa" d="M21.324075985531877 -19.62419367381331 L21.702261209576363 -19.576814945678937 L11.901620426273062 -26.674827720777973 L12.061979225910086 -26.332723660307394 z"/>
<path fill="#bababa" stroke="#bababa" d="M6.050534844349729 28.38864172992351 L5.892173843200865 28.402622087764296 L-3.524972525256849 28.402622087764296 L-6.085034774240111 28.551641546419646 L6.085034774240111 28.551641546419646 z"/>
<path fill="#bababa" stroke="#bababa" d="M-25.208371053092186 14.337042630486994 L-25.220166578518874 14.307012887758484 L-25.258424518404873 14.20194938832309 L-25.373184847369373 14.466384290724317 L-25.31983382064718 14.606362967932645 z"/>
<path fill="#bababa" stroke="#bababa" d="M-17.290412478176403 23.54432663138198 L-17.050329418598825 23.718281874382484 L-17.01700950398288 23.51900956161996 L-17.09377462766672 23.4705876482572 L-17.210855855332827 23.355761575822164 L-17.23667629782949 23.327800867145122 z"/>
<path fill="#bababa" stroke="#bababa" d="M0 -28.5 L-8.55127012301311 -26.674827720779806 L-11.901620426269345 -26.674827720780108 L5.323782403816118e-16 -29.21493732675278 L11.901620426273062 -26.674827720777973 L8.5512701230203 -26.67482772077827 z"/>
<path fill="#bababa" stroke="#bababa" d="M-16.76470588235294 23.071428571428566 L-5.937499999999999 27.852272727272723 L-5.937499999999999 27.852272727272723 L-7.227899651966865 27.282485867962677 L-8.782264987754992 26.59614273267961 L-16.76470588235294 23.071428571428566 z"/>
<path fill="#bababa" stroke="#bababa" d="M27.10975609756097 -8.82142857142857 L21.171428571428567 -19.097938144329895 L21.171428571428567 -19.097938144329895 L22.728344899550763 -16.403633143511826 L27.10975609756097 -8.82142857142857 z"/>
<path fill="#bababa" stroke="#bababa" d="M5.937499999999999 27.852272727272723 L16.76470588235294 23.071428571428566 L16.76470588235294 23.071428571428566 L8.782264987754992 26.59614273267961 L7.227899651966865 27.282485867962677 L5.937499999999999 27.852272727272723 z"/>
<path fill="#bababa" stroke="#bababa" d="M-5.937499999999999 27.852272727272723 L5.937499999999999 27.852272727272723 L5.937499999999999 27.852272727272723 L5.121177973521735 27.852272727272723 L-5.937499999999999 27.852272727272723 z"/>
<path fill="#bababa" stroke="#bababa" d="M27.999530060682982 -0.10240060981002487 L28.172241500528088 1.590024585480165 L28.31612903225806 2.9999999999999996 L28.31612903225806 2.9999999999999996 L27.10975609756097 -8.82142857142857 L27.10975609756097 -8.82142857142857 z"/>
<path fill="#bababa" stroke="#bababa" d="M-27.999530060683213 -0.10240060980776457 L-29.026865816071247 3.074653226631794 L-27.79005427452333 -9.041476962043015 L-21.70226120958323 -19.57681494567577 L-22.7283448995438 -16.40363314352388 L-27.10975609756097 -8.82142857142857 z"/>
<path fill="#bababa" stroke="#bababa" d="M11.61111111111111 -26.02272727272727 L22.22222222222222 -97.43589743589743 L0 -28.5 z"/>
<path fill="#bababa" stroke="#bababa" d="M78.26086956521739 62.263157894736835 L16.76470588235294 23.07142857142857 L62.263157894736835 78.26086956521739 z"/>
<path fill="#bababa" stroke="#bababa" d="M22.22222222222222 97.43589743589743 L5.9375 27.85185185185185 L0 100 z"/>
<path fill="#bababa" stroke="#bababa" d="M43.47826086956521 90 L5.9375 27.85185185185185 L22.22222222222222 97.43589743589743 z"/>
<path fill="#bababa" stroke="#bababa" d="M-27.10975609756097 -8.82142857142857 L-28.31612903225806 2.9999999999999996 L-28.31612903225806 2.9999999999999996 L-28.22254519249476 2.082957976440601 L-27.10975609756097 -8.82142857142857 z"/>
<path fill="#bababa" stroke="#bababa" d="M-12.353940451926285 -25.483765099363957 L-12.038497297667343 -25.712216260278186 L-11.863637265570627 -25.838853902562228 L-11.744954465319106 -25.92480670620353 L-11.651946435659706 -25.99216525262674 L-11.611111111111109 -26.021739130434778 L-11.611111111111109 -26.021739130434778 L-21.171428571428567 -19.097938144329895 L-21.171428571428567 -19.097938144329895 L-13.25509730244606 -24.831126657579745 z"/>
<path fill="#bababa" stroke="#bababa" d="M27.10975609756097 -8.82142857142857 L28.28440523598891 2.6891337820800016 L28.31612903225806 2.9999999999999996 L28.31612903225806 2.9999999999999996 L27.10975609756097 -8.82142857142857 z"/>
<path fill="#bababa" stroke="#bababa" d="M43.47826086956521 -90 L22.22222222222222 -97.43589743589743 L11.61111111111111 -26.02272727272727 z"/>
<path fill="#bababa" stroke="#bababa" d="M-90 -43.47826086956521 L-97.43589743589743 -22.22222222222222 L-27.109090909090906 -8.821428571428571 z"/>
<path fill="#bababa" stroke="#bababa" d="M97.43589743589743 -22.22222222222222 L27.109090909090906 -8.821428571428571 L100 0 z"/>
<path fill="#bababa" stroke="#bababa" d="M24.7 14.25 L16.76470588235294 23.07142857142857 L78.26086956521739 62.263157894736835 z"/>
<path fill="#bababa" stroke="#bababa" d="M90 -43.47826086956521 L27.109090909090906 -8.821428571428571 L97.43589743589743 -22.22222222222222 z"/>
<path fill="#bababa" stroke="#bababa" d="M-5.9375 27.85185185185185 L-43.47826086956521 90 L-22.22222222222222 97.43589743589743 z"/>
<path fill="#bababa" stroke="#bababa" d="M-22.22222222222222 -97.43589743589743 L-11.61111111111111 -26.02272727272727 L0 -28.5 z"/>
<path fill="#bababa" stroke="#bababa" d="M-27.109090909090906 -8.821428571428571 L-97.43589743589743 -22.22222222222222 L-100 0 z"/>
<path fill="#bababa" stroke="#bababa" d="M-97.43589743589743 22.22222222222222 L-28.31578947368421 3 L-100 0 z"/>
<path fill="#bababa" stroke="#bababa" d="M-21.172413793103445 -19.097560975609753 L-11.61111111111111 -26.02272727272727 L-62.263157894736835 -78.26086956521739 z"/>
<path fill="#bababa" stroke="#bababa" d="M0 -28.5 L22.22222222222222 -97.43589743589743 L0 -100 z"/>
<path fill="#bababa" stroke="#bababa" d="M24.7 14.25 L90 43.47826086956521 L97.43589743589743 22.22222222222222 z"/>
<path fill="#bababa" stroke="#bababa" d="M100 0 L28.31578947368421 3 L97.43589743589743 22.22222222222222 z"/>
<path fill="#bababa" stroke="#bababa" d="M-97.43589743589743 22.22222222222222 L-90 43.47826086956521 L-24.7 14.25 z"/>
<path fill="#bababa" stroke="#bababa" d="M-78.26086956521739 62.263157894736835 L-16.76470588235294 23.07142857142857 L-24.7 14.25 z"/>
<path fill="#bababa" stroke="#bababa" d="M-5.9375 27.85185185185185 L-22.22222222222222 97.43589743589743 L0 100 z"/>
<path fill="#bababa" stroke="#bababa" d="M-43.47826086956521 -90 L-11.61111111111111 -26.02272727272727 L-22.22222222222222 -97.43589743589743 z"/>
<path fill="#bababa" stroke="#bababa" d="M-11.606481481481472 -26.02272727272727 L-11.611111111111109 -26.021739130434778 L-11.611111111111109 -26.021739130434778 L-11.560702673755536 -26.032498243546247 L-11.44836505140198 -26.05647544357428 L-11.305512285803976 -26.086965757180174 L-11.093124460738814 -26.132297545929262 L-10.705385948851973 -26.215055963486137 L-9.622007639526762 -26.446290859547645 L0 -28.5 L0 -28.5 z"/>
<path fill="#bababa" stroke="#bababa" d="M21.172413793103445 -19.097560975609753 L62.263157894736835 -78.26086956521739 L11.61111111111111 -26.02272727272727 z"/>
<path fill="#bababa" stroke="#bababa" d="M0 -100 L-22.22222222222222 -97.43589743589743 L0 -28.5 z"/>
<path fill="#bababa" stroke="#bababa" d="M24.7 14.25 L97.43589743589743 22.22222222222222 L28.31578947368421 3 z"/>
<path fill="#bababa" stroke="#bababa" d="M90 43.47826086956521 L24.7 14.25 L78.26086956521739 62.263157894736835 z"/>
<path fill="#bababa" stroke="#bababa" d="M-90 -43.47826086956521 L-21.172413793103445 -19.097560975609753 L-78.26086956521739 -62.263157894736835 z"/>
<path fill="#bababa" stroke="#bababa" d="M-28.31578947368421 3 L-97.43589743589743 22.22222222222222 L-24.7 14.25 z"/>
<path fill="#bababa" stroke="#bababa" d="M28.31578947368421 3 L100 0 L27.109090909090906 -8.821428571428571 z"/>
<path fill="#bababa" stroke="#bababa" d="M62.263157894736835 -78.26086956521739 L21.172413793103445 -19.097560975609753 L78.26086956521739 -62.263157894736835 z"/>
<path fill="#bababa" stroke="#bababa" d="M27.109090909090906 -8.821428571428571 L90 -43.47826086956521 L21.172413793103445 -19.097560975609753 z"/>
<path fill="#bababa" stroke="#bababa" d="M-27.109090909090906 -8.821428571428571 L-100 0 L-28.31578947368421 3 z"/>
<path fill="#bababa" stroke="#bababa" d="M-78.26086956521739 62.263157894736835 L-24.7 14.25 L-90 43.47826086956521 z"/>
<path fill="#bababa" stroke="#bababa" d="M62.263157894736835 78.26086956521739 L16.76470588235294 23.07142857142857 L43.47826086956521 90 z"/>
<path fill="#bababa" stroke="#bababa" d="M-62.263157894736835 78.26086956521739 L-16.76470588235294 23.07142857142857 L-78.26086956521739 62.263157894736835 z"/>
<path fill="#bababa" stroke="#bababa" d="M-78.26086956521739 -62.263157894736835 L-21.172413793103445 -19.097560975609753 L-62.263157894736835 -78.26086956521739 z"/>
<path fill="#bababa" stroke="#bababa" d="M-62.263157894736835 -78.26086956521739 L-11.61111111111111 -26.02272727272727 L-43.47826086956521 -90 z"/>
<path fill="#bababa" stroke="#bababa" d="M78.26086956521739 -62.263157894736835 L21.172413793103445 -19.097560975609753 L90 -43.47826086956521 z"/>
<path fill="#bababa" stroke="#bababa" d="M-21.172413793103445 -19.097560975609753 L-90 -43.47826086956521 L-27.109090909090906 -8.821428571428571 z"/>
<path fill="#bababa" stroke="#bababa" d="M-43.47826086956521 90 L-16.76470588235294 23.07142857142857 L-62.263157894736835 78.26086956521739 z"/>
<path fill="#bababa" stroke="#bababa" d="M43.47826086956521 -90 L11.61111111111111 -26.02272727272727 L62.263157894736835 -78.26086956521739 z"/>
<path fill="#bababa" stroke="#bababa" d="M-5.9375 27.85185185185185 L0 100 L5.9375 27.85185185185185 z"/>
<path fill="#bababa" stroke="#bababa" d="M5.886801443472116 27.852272727272723 L5.937499999999999 27.852272727272723 L16.76470588235294 23.071428571428566 L16.798765514242746 23.033565499760318 L17.03763062493032 23.446837380225567 L6.034327199814632 28.305180853472184 z"/>
<path fill="#bababa" stroke="#bababa" d="M-11.560702673755536 -26.032498243546247 L-11.611111111111109 -26.021739130434778 L-11.651946435659706 -25.99216525262674 L-11.799868761977175 -26.446290859547645 z"/>
<path fill="#bababa" stroke="#bababa" d="M-16.76470588235294 23.07142857142857 L-43.47826086956521 90 L-5.9375 27.85185185185185 z"/>
<path fill="#bababa" stroke="#bababa" d="M-24.352291383767817 -13.59332981862851 L-27.10975609756097 -8.82142857142857 L-27.10975609756097 -8.82142857142857 L-26.090872988035187 -10.584645905371854 L-21.171428571428567 -19.097938144329895 L-21.171428571428567 -19.097938144329895 z"/>
<path fill="#bababa" stroke="#bababa" d="M-16.973816567396074 22.838966491979203 L-24.699999999999996 14.25 L-24.699999999999996 14.25 L-16.76470588235294 23.071428571428566 L-16.76470588235294 23.071428571428566 z"/>
<path fill="#bababa" stroke="#bababa" d="M-11.651946435659706 -25.99216525262674 L-11.744954465319106 -25.92480670620353 L-11.799868761977175 -26.446290859547645 z"/>
<path fill="#bababa" stroke="#bababa" d="M-5.937499999999999 27.852272727272723 L5.886801443472116 27.852272727272723 L6.034327199814632 28.305180853472184 L-6.034327199814632 28.305180853472184 L-6.089067744010607 27.78534671043687 z"/>
<path fill="#bababa" stroke="#bababa" d="M-6.089067744010607 27.78534671043687 L-16.76470588235294 23.071428571428566 L-16.76470588235294 23.071428571428566 L-5.937499999999999 27.852272727272723 L-5.937499999999999 27.852272727272723 z"/>
<path fill="#bababa" stroke="#bababa" d="M-24.699999999999996 14.249999999999996 L-24.863659828991178 13.74084419838827 L-28.31612903225806 2.9999999999999996 L-28.31612903225806 2.9999999999999996 L-24.699999999999996 14.25 L-24.699999999999996 14.25 z"/>
<path fill="#bababa" stroke="#bababa" d="M5.886801443472116 27.852272727272723 L-5.937499999999999 27.852272727272723 L-5.937499999999999 27.852272727272723 L5.937499999999999 27.852272727272723 L5.937499999999999 27.852272727272723 z"/>
<path fill="#bababa" stroke="#bababa" d="M5.937499999999999 27.852272727272723 L16.76470588235294 23.071428571428566 L16.76470588235294 23.071428571428566 L5.937499999999999 27.852272727272723 z"/>
<path fill="#bababa" stroke="#bababa" d="M16.76470588235294 23.071428571428566 L16.76470588235294 23.071428571428566 L24.699999999999996 14.25 L24.699999999999996 14.25 L16.798765514242746 23.033565499760318 z"/>
<path fill="#bababa" stroke="#bababa" d="M-11.560702673755536 -26.032498243546247 L-11.799868761977175 -26.446290859547645 L-11.44836505140198 -26.05647544357428 z"/>
<path fill="#bababa" stroke="#bababa" d="M24.751697130796106 14.089167044021915 L25.103839648715397 14.479690893343419 L17.03763062493032 23.446837380225567 L16.798765514242746 23.033565499760318 L24.699999999999996 14.25 z"/>
<path fill="#bababa" stroke="#bababa" d="M24.913478733479714 13.585854520061988 L24.751697130796106 14.089167044021915 L24.699999999999996 14.25 L24.699999999999996 14.25 L28.31612903225806 2.9999999999999996 L28.31612903225806 2.9999999999999996 z"/>
<path fill="#bababa" stroke="#bababa" d="M27.10975609756097 -8.82142857142857 L27.10975609756097 -8.82142857142857 L21.171428571428567 -19.097938144329895 L21.171428571428567 -19.097938144329895 L26.846946032961252 -9.27623173491673 z"/>
<path fill="#bababa" stroke="#bababa" d="M21.171428571428567 -19.097938144329895 L11.611111111111109 -26.021739130434778 L11.611111111111109 -26.021739130434778 L20.425934579420886 -19.63784197685667 L21.171428571428567 -19.097938144329895 z"/>
<path fill="#bababa" stroke="#bababa" d="M11.606481481481472 -26.02272727272727 L0 -28.5 L0 -28.5 L9.622007639526762 -26.446290859547645 L11.611111111111109 -26.021739130434778 L11.611111111111109 -26.021739130434778 z"/>
<path fill="#bababa" stroke="#bababa" d="M-11.799868761977175 -26.446290859547645 L-11.305512285803976 -26.086965757180174 L-11.44836505140198 -26.05647544357428 z"/>
<path fill="#bababa" stroke="#bababa" d="M24.913478733479714 13.585854520061986 L28.31612903225806 2.9999999999999996 L28.28440523598891 2.6891337820800016 L28.77801856934838 3.0479187279399973 L25.103839648715397 14.479690893343419 L24.751697130796106 14.089167044021915 z"/>
<path fill="#bababa" stroke="#bababa" d="M5.9375 27.85185185185185 L43.47826086956521 90 L16.76470588235294 23.07142857142857 z"/>
<path fill="#bababa" stroke="#bababa" d="M-11.799868761977175 -26.446290859547645 L-10.705385948851973 -26.215055963486137 L-11.093124460738814 -26.132297545929262 z"/>
<path fill="#bababa" stroke="#bababa" d="M20.425934579420886 -19.63784197685667 L21.51847504525004 -19.40701744674128 L27.551918212127436 -8.963025742088348 L26.846946032961252 -9.27623173491673 L21.171428571428567 -19.097938144329895 z"/>
<path fill="#bababa" stroke="#bababa" d="M-11.799868761977175 -26.446290859547645 L-12.353940451926285 -25.483765099363957 L-13.25509730244606 -24.831126657579745 z"/>
<path fill="#bababa" stroke="#bababa" d="M-27.10975609756097 -8.82142857142857 L-28.22254519249476 2.082957976440601 L-28.77801856934838 3.0479187279399973 L-27.551918212127436 -8.963025742088348 L-26.090872988035187 -10.584645905371854 z"/>
<path fill="#bababa" stroke="#bababa" d="M-11.799868761977175 -26.446290859547645 L-11.744954465319106 -25.92480670620353 L-11.863637265570627 -25.838853902562228 z"/>
<path fill="#bababa" stroke="#bababa" d="M-6.089067744010607 27.78534671043687 L-6.034327199814632 28.305180853472184 L-17.03763062493032 23.446837380225567 L-16.973816567396074 22.838966491979203 L-16.76470588235294 23.071428571428566 z"/>
<path fill="#bababa" stroke="#bababa" d="M-62.26415094339622 -78.26086956521738 L-77.04572980314579 -63.479290705467804 L-78.26086956521738 -62.26415094339622 L-78.26086956521738 -62.26415094339622 L-62.26415094339622 -78.26086956521738 z"/>
<path fill="#bababa" stroke="#bababa" d="M-78.26086956521738 62.26415094339622 L-62.41800866554983 78.10701184306377 L-62.26415094339622 78.26086956521738 L-62.26415094339622 78.26086956521738 L-78.26086956521738 62.26415094339622 z"/>
<path fill="#bababa" stroke="#bababa" d="M-22.222222222222218 97.43589743589743 L0 100 L0 100 L-22.222222222222218 97.43589743589743 z"/>
<path fill="#bababa" stroke="#bababa" d="M23.444472449939543 -97.00832353630611 L23.84665049184486 -96.86763153248573 L22.40795083525118 -98.30641747943174 z"/>
<path fill="#bababa" stroke="#bababa" d="M97.43589743589743 -22.222222222222218 L99.84711213438725 -1.3250281686437961 L100.8898452968276 -0.0191551571417223 L98.3073046579189 -22.402511364036336 L96.86998807181045 -23.839914157543305 z"/>
<path fill="#bababa" stroke="#bababa" d="M22.949168719033324 -97.18159325056193 L23.16163743066407 -97.10726634637084 L22.40795083525118 -98.30641747943174 z"/>
<path fill="#bababa" stroke="#bababa" d="M97.43589743589743 22.222222222222218 L90.26468806359088 42.72163132246878 L90.8080310575638 43.850872211436545 L98.29887097902026 22.439637224622455 L97.54855575694258 21.24585010649755 z"/>
<path fill="#bababa" stroke="#bababa" d="M22.30670023600242 -97.40634489995789 L22.408024493082827 -97.3708991240107 L22.40795083525118 -98.30641747943174 z"/>
<path fill="#bababa" stroke="#bababa" d="M22.222222222222218 97.43589743589743 L0.10146278414228495 99.98829275567589 L0 100.89025156402991 L22.423430798832385 98.30254789986184 L22.4233570233611 97.36553541892559 z"/>
<path fill="#bababa" stroke="#bababa" d="M22.40795083525118 -98.30641747943174 L19.802278572708726 -97.71512170314898 L20.492122564291478 -97.63552431950482 z"/>
<path fill="#bababa" stroke="#bababa" d="M-60.17548624219664 -79.56605698330323 L-62.80069758646322 -78.9703272739192 L-78.96509407136264 -62.80715929448816 L-77.04572980314579 -63.479290705467804 L-62.26415094339622 -78.26086956521738 z"/>
<path fill="#bababa" stroke="#bababa" d="M22.408024493082827 -97.3708991240107 L22.51836978233052 -97.3322975639085 L22.40795083525118 -98.30641747943174 z"/>
<path fill="#bababa" stroke="#bababa" d="M43.47826086956521 89.99999999999999 L22.4233570233611 97.36553541892559 L22.423430798832385 98.30254789986184 L43.84489147719512 90.81104251774869 L43.734787244172516 89.83969902093315 z"/>
<path fill="#bababa" stroke="#bababa" d="M-78.26086956521739 -62.263157894736835 L-62.263157894736835 -78.26086956521739 L-43.4782608698569 -89.9999999998177 L-62.26415094339622 -78.26086956521738 L-78.26086956521738 -62.26415094339622 L-89.9999999998177 -43.4782608698569 z"/>
<path fill="#bababa" stroke="#bababa" d="M-62.26805955517427 78.25596790477995 L-78.26086956521739 62.263157894736835 L-89.9999999998177 43.4782608698569 L-78.26086956521738 62.26415094339622 L-62.26415094339622 78.26086956521738 L-43.4782608698569 89.9999999998177 L-62.263157894736835 78.26086956521739 z"/>
<path fill="#bababa" stroke="#bababa" d="M78.25596790477995 62.26805955517427 L62.263157894736835 78.26086956521739 L43.4782608698569 89.9999999998177 L62.26415094339622 78.26086956521738 L78.26086956521738 62.26415094339622 L89.9999999998177 43.4782608698569 L78.26086956521739 62.263157894736835 z"/>
<path fill="#bababa" stroke="#bababa" d="M62.26415094339622 -78.26086956521738 L43.4782608698569 -89.9999999998177 L62.263157894736835 -78.26086956521739 L78.26086956521739 -62.263157894736835 L89.9999999998177 -43.4782608698569 L78.26086956521738 -62.26415094339622 z"/>
<path fill="#bababa" stroke="#bababa" d="M22.40795083525118 -98.30641747943174 L23.84665049184486 -96.86763153248573 L24.505410572342143 -96.63718067215792 z"/>
<path fill="#bababa" stroke="#bababa" d="M96.86998807181045 -23.839914157543305 L98.3073046579189 -22.402511364036336 L90.79228921377174 -43.88360656969151 L88.71230140687072 -45.53893856227382 L89.99999999999999 -43.47826086956521 z"/>
<path fill="#bababa" stroke="#bababa" d="M-89.9999999998177 -43.4782608698569 L-78.26086956521738 -62.26415094339622 L-78.26086956521738 -62.26415094339622 L-89.29768493940243 -44.602161281003646 L-89.99999999999999 -43.47826086956521 L-89.99999999999999 -43.47826086956521 z"/>
<path fill="#bababa" stroke="#bababa" d="M-53.697379304925285 -83.61416660218327 L-60.17548624219664 -79.56605698330323 L-62.26415094339622 -78.26086956521738 L-62.26415094339622 -78.26086956521738 L-43.47826086956521 -89.99999999999999 L-43.47826086956521 -89.99999999999999 z"/>
<path fill="#bababa" stroke="#bababa" d="M-33.78019386106329 -93.39262798671542 L-39.91374320030177 -91.24695801681749 L-43.47826086956521 -89.99999999999999 L-43.47826086956521 -89.99999999999999 L-22.222222222222218 -97.43589743589743 L-22.222222222222218 -97.43589743589743 z"/>
<path fill="#bababa" stroke="#bababa" d="M24.505410572342143 -96.63718067215792 L25.77490373411156 -96.19308000490257 L22.40795083525118 -98.30641747943174 z"/>
<path fill="#bababa" stroke="#bababa" d="M78.26086956521738 -62.26415094339622 L88.71230140687072 -45.53893856227382 L90.79228921377174 -43.88360656969151 L78.96509407136263 -62.80715929448816 L75.61528343348775 -64.90973707512585 z"/>
<path fill="#bababa" stroke="#bababa" d="M-100 0 L-100 0 L-97.43589743589743 -22.222222222222218 L-97.43589743589743 -22.222222222222218 L-99.9074277689709 -0.8022926689187484 z"/>
<path fill="#bababa" stroke="#bababa" d="M-93.39243268814977 33.78075213582372 L-90.15603909486462 43.03221208264579 L-89.99999999999999 43.47826086956521 L-89.99999999999999 43.47826086956521 L-97.43589743589743 22.222222222222218 L-97.43589743589743 22.222222222222218 z"/>
<path fill="#bababa" stroke="#bababa" d="M-78.26086956521738 62.26415094339622 L-78.26086956521738 62.26415094339622 L-89.99999999999999 43.47826086956521 L-89.99999999999999 43.47826086956521 L-78.42311271831187 62.004516547458834 z"/>
<path fill="#bababa" stroke="#bababa" d="M-43.47826086956521 89.99999999999999 L-43.47826086956521 89.99999999999999 L-62.26415094339622 78.26086956521738 L-62.26415094339622 78.26086956521738 L-43.54594478175644 89.95770494395386 z"/>
<path fill="#bababa" stroke="#bababa" d="M-31.919707563041534 94.04347293118073 L-22.225549111644096 97.4347336062238 L-22.222222222222218 97.43589743589743 L-22.222222222222218 97.43589743589743 L-43.47826086956521 89.99999999999999 L-43.47826086956521 89.99999999999999 z"/>
<path fill="#bababa" stroke="#bababa" d="M22.63973819734771 -97.28983983690685 L22.78209290092068 -97.24004057784225 L22.40795083525118 -98.30641747943174 z"/>
<path fill="#bababa" stroke="#bababa" d="M78.26086956521738 62.26415094339622 L62.59189463147346 77.93312587714014 L62.824111877157534 78.95158891169001 L78.94437187418914 62.83326454637649 L78.57072423595594 61.76829685814723 z"/>
<path fill="#bababa" stroke="#bababa" d="M0.10146278414228495 99.98829275567589 L22.222222222222218 97.43589743589743 L22.222222222222218 97.43589743589743 L0 100 L0 100 z"/>
<path fill="#bababa" stroke="#bababa" d="M43.47826086956521 89.99999999999999 L43.47826086956521 89.99999999999999 L22.222222222222218 97.43589743589743 L22.222222222222218 97.43589743589743 L22.4233570233611 97.36553541892559 z"/>
<path fill="#bababa" stroke="#bababa" d="M62.59189463147346 77.93312587714014 L78.26086956521738 62.26415094339622 L78.26086956521738 62.26415094339622 L62.26415094339622 78.26086956521738 L62.26415094339622 78.26086956521738 z"/>
<path fill="#bababa" stroke="#bababa" d="M22.40795083525118 -98.30641747943174 L22.51836978233052 -97.3322975639085 L22.63973819734771 -97.28983983690685 z"/>
<path fill="#bababa" stroke="#bababa" d="M43.734787244172516 89.83969902093315 L43.84489147719512 90.81104251774869 L62.824111877157534 78.95158891169001 L62.59189463147346 77.93312587714014 L62.26415094339622 78.26086956521738 z"/>
<path fill="#bababa" stroke="#bababa" d="M25.77490373411156 -96.19308000490257 L29.6667602310121 -94.83161062547984 L22.40795083525118 -98.30641747943174 z"/>
<path fill="#bababa" stroke="#bababa" d="M62.26415094339622 -78.26086956521738 L75.61528343348775 -64.90973707512585 L78.96509407136263 -62.80715929448816 L62.80069758646322 -78.9703272739192 L55.65417987977546 -82.39137986741882 z"/>
<path fill="#bababa" stroke="#bababa" d="M97.54855575694258 21.24585010649755 L100 0 L100 0 L97.43589743589743 22.222222222222218 L97.43589743589743 22.222222222222218 z"/>
<path fill="#bababa" stroke="#bababa" d="M99.84711213438725 -1.3250281686437961 L97.43589743589743 -22.222222222222218 L97.43589743589743 -22.222222222222218 L100 0 L100 0 z"/>
<path fill="#bababa" stroke="#bababa" d="M75.61528343348775 -64.90973707512585 L62.26415094339622 -78.26086956521738 L62.26415094339622 -78.26086956521738 L78.26086956521738 -62.26415094339622 L78.26086956521738 -62.26415094339622 z"/>
<path fill="#bababa" stroke="#bababa" d="M96.86998807181045 -23.839914157543305 L89.99999999999999 -43.47826086956521 L89.99999999999999 -43.47826086956521 L97.43589743589743 -22.222222222222218 L97.43589743589743 -22.222222222222218 z"/>
<path fill="#bababa" stroke="#bababa" d="M-22.222222222222218 -97.43589743589743 L-22.222222222222218 -97.43589743589743 L0 -100 L0 -100 L-14.677715178258095 -98.30641747943174 z"/>
<path fill="#bababa" stroke="#bababa" d="M55.65417987977546 -82.39137986741882 L43.47826086956521 -89.99999999999999 L43.47826086956521 -89.99999999999999 L62.26415094339622 -78.26086956521738 L62.26415094339622 -78.26086956521738 z"/>
<path fill="#bababa" stroke="#bababa" d="M90.26468806359088 42.72163132246878 L97.43589743589743 22.222222222222218 L97.43589743589743 22.222222222222218 L89.99999999999999 43.47826086956521 L89.99999999999999 43.47826086956521 z"/>
<path fill="#bababa" stroke="#bababa" d="M-22.225549111644096 97.4347336062238 L-22.42343079883239 98.30254789986184 L0 100.89025156402991 L0.10146278414228495 99.98829275567589 L0 100 L-22.222222222222218 97.43589743589743 z"/>
<path fill="#bababa" stroke="#bababa" d="M22.222222222222218 -97.43589743589743 L22.222222222222218 -97.43589743589743 L22.30670023600242 -97.40634489995789 L22.40795083525118 -98.30641747943174 L22.20977954587578 -97.43733312932201 z"/>
<path fill="#bababa" stroke="#bababa" d="M22.51836978233052 -97.3322975639085 L22.408024493082827 -97.3708991240107 L22.30670023600242 -97.40634489995789 L22.222222222222218 -97.43589743589743 L22.222222222222218 -97.43589743589743 L43.47826086956521 -89.99999999999999 L43.47826086956521 -89.99999999999999 L29.6667602310121 -94.83161062547984 L25.77490373411156 -96.19308000490257 L24.505410572342143 -96.63718067215792 L23.84665049184486 -96.86763153248573 L23.444472449939543 -97.00832353630611 L23.16163743066407 -97.10726634637084 L22.949168719033324 -97.18159325056193 L22.78209290092068 -97.24004057784225 L22.63973819734771 -97.28983983690685 z"/>
<path fill="#bababa" stroke="#bababa" d="M22.40795083525118 -98.30641747943174 L22.78209290092068 -97.24004057784225 L22.949168719033324 -97.18159325056193 z"/>
<path fill="#bababa" stroke="#bababa" d="M84.64575413639358 52.046550895881545 L78.57072423595594 61.76829685814723 L78.94437187418914 62.83326454637649 L90.8080310575638 43.850872211436545 L90.26468806359088 42.72163132246878 L89.99999999999999 43.47826086956521 z"/>
<path fill="#bababa" stroke="#bababa" d="M43.734787244172516 89.83969902093315 L62.26415094339622 78.26086956521738 L62.26415094339622 78.26086956521738 L43.47826086956521 89.99999999999999 L43.47826086956521 89.99999999999999 z"/>
<path fill="#bababa" stroke="#bababa" d="M78.57072423595594 61.76829685814723 L89.99999999999999 43.47826086956521 L89.99999999999999 43.47826086956521 L78.26086956521738 62.26415094339622 L78.26086956521738 62.26415094339622 z"/>
<path fill="#bababa" stroke="#bababa" d="M22.40795083525118 -98.30641747943174 L22.001612947417957 -97.461352352221 L22.107617260475404 -97.44912108532975 z"/>
<path fill="#bababa" stroke="#bababa" d="M-62.41800866554983 78.10701184306377 L-62.824111877157534 78.95158891169001 L-43.84489147719512 90.81104251774869 L-43.54594478175644 89.95770494395386 L-62.26415094339622 78.26086956521738 z"/>
<path fill="#bababa" stroke="#bababa" d="M22.40795083525118 -98.30641747943174 L23.16163743066407 -97.10726634637084 L23.444472449939543 -97.00832353630611 z"/>
<path fill="#bababa" stroke="#bababa" d="M97.54855575694258 21.24585010649755 L98.29887097902026 22.439637224622455 L100.8898452968276 -0.0191551571417223 L99.84711213438725 -1.3250281686437961 L100 0 z"/>
<path fill="#bababa" stroke="#bababa" d="M22.40795083525118 -98.30641747943174 L21.88489902341458 -97.47481934345215 L22.001612947417957 -97.461352352221 z"/>
<path fill="#bababa" stroke="#bababa" d="M-78.42311271831187 62.004516547458834 L-78.94437187418914 62.83326454637649 L-62.824111877157534 78.95158891169001 L-62.41800866554983 78.10701184306377 L-78.26086956521738 62.26415094339622 z"/>
<path fill="#bababa" stroke="#bababa" d="M22.40795083525118 -98.30641747943174 L21.75737366687633 -97.48953380766811 L21.88489902341458 -97.47481934345215 z"/>
<path fill="#bababa" stroke="#bababa" d="M-83.614692299603 53.69653804210825 L-89.99999999999999 43.47826086956521 L-90.15603909486462 43.03221208264579 L-90.8080310575638 43.850872211436545 L-78.94437187418914 62.83326454637649 L-78.42311271831187 62.004516547458834 z"/>
<path fill="#bababa" stroke="#bababa" d="M22.222222222222214 -97.43589743589743 L22.222222222222218 -97.43589743589743 L22.222222222222218 -97.43589743589743 L22.20977954587578 -97.43733312932201 L22.107617260475404 -97.44912108532975 L22.001612947417957 -97.461352352221 L21.88489902341458 -97.47481934345215 L21.75737366687633 -97.48953380766811 L21.60850424556286 -97.5067110485889 L21.43051185293002 -97.52724863235422 L21.20936572073954 -97.55276549376082 L20.91176773558707 -97.58710372281686 L20.492122564291478 -97.63552431950482 L19.802278572708726 -97.71512170314898 L18.507165070276937 -97.8645578765065 L14.677715178258094 -98.30641747943174 L0 -100 L0 -100 z"/>
<path fill="#bababa" stroke="#bababa" d="M22.40795083525118 -98.30641747943174 L21.60850424556286 -97.5067110485889 L21.75737366687633 -97.48953380766811 z"/>
<path fill="#bababa" stroke="#bababa" d="M-93.39243268814977 33.78075213582372 L-97.43589743589743 22.222222222222218 L-97.50270612367956 21.643213594777123 L-98.29887097902026 22.439637224622455 L-90.8080310575638 43.850872211436545 L-90.15603909486462 43.03221208264579 z"/>
<path fill="#bababa" stroke="#bababa" d="M89.99999999999997 -43.47826086956522 L88.71230140687072 -45.53893856227382 L78.26086956521738 -62.26415094339622 L78.26086956521738 -62.26415094339622 L89.99999999999999 -43.47826086956521 L89.99999999999999 -43.47826086956521 z"/>
<path fill="#bababa" stroke="#bababa" d="M-89.99999999999999 -43.47826086956521 L-97.10931153495227 -23.15579111447926 L-97.43589743589743 -22.222222222222218 L-97.43589743589743 -22.222222222222218 L-89.99999999999999 -43.47826086956521 z"/>
<path fill="#bababa" stroke="#bababa" d="M-97.43589743589743 22.222222222222218 L-97.43589743589743 22.222222222222218 L-100 0 L-100 0 L-97.50270612367956 21.643213594777123 z"/>
<path fill="#bababa" stroke="#bababa" d="M-12.353940451926285 -25.483765099363957 L-11.799868761977175 -26.446290859547645 L-12.038497297667343 -25.712216260278186 z"/>
<path fill="#bababa" stroke="#bababa" d="M-28.31612903225806 2.9999999999999996 L-24.863659828991178 13.74084419838827 L-25.103839648715397 14.479690893343419 L-28.77801856934838 3.0479187279399973 L-28.22254519249476 2.082957976440601 z"/>
<path fill="#bababa" stroke="#bababa" d="M-9.622007639526762 -26.446290859547645 L-10.705385948851973 -26.215055963486137 L-11.799868761977175 -26.446290859547645 z"/>
<path fill="#bababa" stroke="#bababa" d="M20.425934579420886 -19.63784197685667 L11.611111111111109 -26.021739130434778 L9.622007639526762 -26.446290859547645 L11.799868761977175 -26.446290859547645 L21.51847504525004 -19.40701744674128 z"/>
<path fill="#bababa" stroke="#bababa" d="M0 -28.5 L-9.622007639526762 -26.446290859547645 L-11.799868761977175 -26.446290859547645 L1.114336349859766e-16 -28.96381066985079 L11.799868761977175 -26.446290859547645 L9.622007639526762 -26.446290859547645 z"/>
<path fill="#bababa" stroke="#bababa" d="M-12.093038216795453 -98.60464943652359 L0 -100 L14.677715178258094 -98.30641747943174 L22.40795083525118 -98.30641747943174 L0 -100.88979105115519 L-22.40795083525118 -98.30641747943174 L-14.677715178258095 -98.30641747943174 z"/>
<path fill="#bababa" stroke="#bababa" d="M14.677715178258094 -98.30641747943174 L18.507165070276937 -97.8645578765065 L22.40795083525118 -98.30641747943174 z"/>
<path fill="#bababa" stroke="#bababa" d="M-33.780193861063275 -93.39262798671544 L-22.222222222222218 -97.43589743589743 L-14.677715178258095 -98.30641747943174 L-22.40795083525118 -98.30641747943174 L-43.870042787861365 -90.79881011274414 L-39.91374320030177 -91.24695801681749 z"/>
<path fill="#bababa" stroke="#bababa" d="M21.51847504525004 -19.40701744674128 L62.80069758646322 -78.9703272739192 L78.96509407136263 -62.80715929448816 z"/>
<path fill="#bababa" stroke="#bababa" d="M18.507165070276937 -97.8645578765065 L19.802278572708726 -97.71512170314898 L22.40795083525118 -98.30641747943174 z"/>
<path fill="#bababa" stroke="#bababa" d="M-53.697379304925285 -83.61416660218327 L-43.47826086956521 -89.99999999999999 L-39.91374320030177 -91.24695801681749 L-43.870042787861365 -90.79881011274414 L-62.80069758646322 -78.9703272739192 L-60.17548624219664 -79.56605698330323 z"/>
<path fill="#bababa" stroke="#bababa" d="M43.870042787861365 -90.79881011274414 L62.80069758646322 -78.9703272739192 L11.799868761977175 -26.446290859547645 z"/>
<path fill="#bababa" stroke="#bababa" d="M1.114336349859766e-16 -28.96381066985079 L-22.40795083525118 -98.30641747943174 L0 -100.88979105115519 z"/>
<path fill="#bababa" stroke="#bababa" d="M24.352291383767817 -13.59332981862851 L27.10975609756097 -8.82142857142857 L28.31612903225806 2.9999999999999996 L24.70000000002471 14.249999999923123 L28.31578947368421 3 L27.109090909090906 -8.821428571428571 z"/>
<path fill="#bababa" stroke="#bababa" d="M-5.938129095810175 27.851574093740545 L-5.9375 27.85185185185185 L5.9375 27.85185185185185 L16.764705882249693 23.071428571474154 L5.937499999999999 27.852272727272723 L-5.937499999999999 27.852272727272723 L-16.764705882249693 23.071428571474154 z"/>
<path fill="#bababa" stroke="#bababa" d="M-24.352291383767817 -13.59332981862851 L-27.109090909090906 -8.821428571428571 L-28.31578947368421 3 L-24.70000000002471 14.249999999923123 L-28.31612903225806 2.9999999999999996 L-27.10975609756097 -8.82142857142857 z"/>
<path fill="#bababa" stroke="#bababa" d="M22.107617260475404 -97.44912108532975 L22.20977954587578 -97.43733312932201 L22.40795083525118 -98.30641747943174 z"/>
<path fill="#bababa" stroke="#bababa" d="M-43.47826086956521 89.99999999999999 L-43.47826086956521 89.99999999999999 L-43.54594478175644 89.95770494395386 L-43.84489147719512 90.81104251774869 L-22.42343079883239 98.30254789986184 L-22.225549111644096 97.4347336062238 z"/>
<path fill="#bababa" stroke="#bababa" d="M-43.870042787861365 -90.79881011274414 L-11.799868761977175 -26.446290859547645 L-62.80069758646322 -78.9703272739192 z"/>
<path fill="#bababa" stroke="#bababa" d="M-13.25509730244606 -24.831126657579745 L-21.171428571428567 -19.097938144329895 L-26.090872988035187 -10.584645905371854 L-27.551918212127436 -8.963025742088348 L-21.51847504525004 -19.40701744674128 L-11.799868761977175 -26.446290859547645 z"/>
<path fill="#bababa" stroke="#bababa" d="M90.79228921377174 -43.88360656969151 L27.551918212127436 -8.963025742088348 L21.51847504525004 -19.40701744674128 z"/>
<path fill="#bababa" stroke="#bababa" d="M11.799868761977175 -26.446290859547645 L62.80069758646322 -78.9703272739192 L21.51847504525004 -19.40701744674128 z"/>
<path fill="#bababa" stroke="#bababa" d="M-24.699999999999996 14.249999999999995 L-24.70000000002471 14.249999999923123 L-24.7 14.25 L-16.76470588235294 23.07142857142857 L-16.764705882249693 23.071428571474154 L-16.76470588235294 23.071428571428566 L-24.699999999999996 14.25 z"/>
<path fill="#bababa" stroke="#bababa" d="M16.76470588235294 23.071428571428566 L16.764705882249693 23.071428571474154 L16.76470588235294 23.07142857142857 L24.7 14.25 L24.70000000002471 14.249999999923123 L24.699999999999996 14.25 z"/>
<path fill="#bababa" stroke="#bababa" d="M-11.611111111111109 -26.021739130434778 L0 -28.5 L-11.61111111111111 -26.02272727272727 L-21.172413793103445 -19.097560975609753 L-24.352291383767817 -13.59332981862851 L-21.171428571428567 -19.097938144329895 z"/>
<path fill="#bababa" stroke="#bababa" d="M21.171428571428567 -19.097938144329895 L24.352291383767817 -13.59332981862851 L21.172413793103445 -19.097560975609753 L11.61111111111111 -26.02272727272727 L0 -28.5 L11.611111111111109 -26.021739130434778 z"/>
<path fill="#bababa" stroke="#bababa" d="M-6.034327199814632 28.305180853472184 L6.034327199814632 28.305180853472184 L0 100.89025156402991 z"/>
<path fill="#bababa" stroke="#bababa" d="M-11.863637265570627 -25.838853902562228 L-12.038497297667343 -25.712216260278186 L-11.799868761977175 -26.446290859547645 z"/>
<path fill="#bababa" stroke="#bababa" d="M-24.699999999999996 14.249999999999996 L-24.699999999999996 14.25 L-16.973816567396074 22.838966491979203 L-17.03763062493032 23.446837380225567 L-25.103839648715397 14.479690893343419 L-24.863659828991178 13.74084419838827 z"/>
<path fill="#bababa" stroke="#bababa" d="M20.492122564291478 -97.63552431950482 L20.91176773558707 -97.58710372281686 L22.40795083525118 -98.30641747943174 z"/>
<path fill="#bababa" stroke="#bababa" d="M-84.64573278650245 -52.04658506167518 L-78.26086956521738 -62.26415094339622 L-77.04572980314579 -63.479290705467804 L-78.96509407136264 -62.80715929448816 L-90.79228921377174 -43.88360656969151 L-89.29768493940243 -44.602161281003646 z"/>
<path fill="#bababa" stroke="#bababa" d="M20.91176773558707 -97.58710372281686 L21.20936572073954 -97.55276549376082 L22.40795083525118 -98.30641747943174 z"/>
<path fill="#bababa" stroke="#bababa" d="M-94.04403227160105 -31.9181086488965 L-89.99999999999999 -43.47826086956521 L-89.29768493940243 -44.602161281003646 L-90.79228921377174 -43.88360656969151 L-98.3073046579189 -22.402511364036336 L-97.10931153495227 -23.15579111447926 z"/>
<path fill="#bababa" stroke="#bababa" d="M43.84489147719512 90.81104251774869 L6.034327199814632 28.305180853472184 L17.03763062493032 23.446837380225567 z"/>
<path fill="#bababa" stroke="#bababa" d="M-22.40795083525118 -98.30641747943174 L-11.799868761977175 -26.446290859547645 L-43.870042787861365 -90.79881011274414 z"/>
<path fill="#bababa" stroke="#bababa" d="M0 100.89025156402991 L-22.42343079883239 98.30254789986184 L-6.034327199814632 28.305180853472184 z"/>
<path fill="#bababa" stroke="#bababa" d="M-25.103839648715397 14.479690893343419 L-17.03763062493032 23.446837380225567 L-78.94437187418914 62.83326454637649 z"/>
<path fill="#bababa" stroke="#bababa" d="M-78.94437187418914 62.83326454637649 L-17.03763062493032 23.446837380225567 L-62.824111877157534 78.95158891169001 z"/>
<path fill="#bababa" stroke="#bababa" d="M-25.103839648715397 14.479690893343419 L-90.8080310575638 43.850872211436545 L-98.29887097902026 22.439637224622455 z"/>
<path fill="#bababa" stroke="#bababa" d="M-78.94437187418914 62.83326454637649 L-90.8080310575638 43.850872211436545 L-25.103839648715397 14.479690893343419 z"/>
<path fill="#bababa" stroke="#bababa" d="M98.29887097902026 22.439637224622455 L28.77801856934838 3.0479187279399973 L100.8898452968276 -0.0191551571417223 z"/>
<path fill="#bababa" stroke="#bababa" d="M98.29887097902026 22.439637224622455 L90.8080310575638 43.850872211436545 L25.103839648715397 14.479690893343419 z"/>
<path fill="#bababa" stroke="#bababa" d="M28.77801856934838 3.0479187279399973 L27.551918212127436 -8.963025742088348 L100.8898452968276 -0.0191551571417223 z"/>
<path fill="#bababa" stroke="#bababa" d="M0 -100.88979105115519 L22.40795083525118 -98.30641747943174 L1.114336349859766e-16 -28.96381066985079 z"/>
<path fill="#bababa" stroke="#bababa" d="M43.84489147719512 90.81104251774869 L17.03763062493032 23.446837380225567 L62.824111877157534 78.95158891169001 z"/>
<path fill="#bababa" stroke="#bababa" d="M-62.80069758646322 -78.9703272739192 L-11.799868761977175 -26.446290859547645 L-21.51847504525004 -19.40701744674128 z"/>
<path fill="#bababa" stroke="#bababa" d="M21.43051185293002 -97.52724863235422 L21.60850424556286 -97.5067110485889 L22.40795083525118 -98.30641747943174 z"/>
<path fill="#bababa" stroke="#bababa" d="M-98.6050851994375 12.089261604875016 L-100 0 L-99.9074277689709 -0.8022926689187484 L-100.8898452968276 -0.019155157141722296 L-98.29887097902026 22.439637224622455 L-97.50270612367956 21.643213594777123 z"/>
<path fill="#bababa" stroke="#bababa" d="M-100.8898452968276 -0.019155157141722296 L-28.77801856934838 3.0479187279399973 L-98.29887097902026 22.439637224622455 z"/>
<path fill="#bababa" stroke="#bababa" d="M-98.29887097902026 22.439637224622455 L-28.77801856934838 3.0479187279399973 L-25.103839648715397 14.479690893343419 z"/>
<path fill="#bababa" stroke="#bababa" d="M25.103839648715397 14.479690893343419 L90.8080310575638 43.850872211436545 L78.94437187418914 62.83326454637649 z"/>
<path fill="#bababa" stroke="#bababa" d="M25.103839648715397 14.479690893343419 L28.77801856934838 3.0479187279399973 L98.29887097902026 22.439637224622455 z"/>
<path fill="#bababa" stroke="#bababa" d="M-100.8898452968276 -0.019155157141722296 L-98.3073046579189 -22.402511364036336 L-27.551918212127436 -8.963025742088348 z"/>
<path fill="#bababa" stroke="#bababa" d="M1.114336349859766e-16 -28.96381066985079 L-11.799868761977175 -26.446290859547645 L-22.40795083525118 -98.30641747943174 z"/>
<path fill="#bababa" stroke="#bababa" d="M-22.42343079883239 98.30254789986184 L-43.84489147719512 90.81104251774869 L-6.034327199814632 28.305180853472184 z"/>
<path fill="#bababa" stroke="#bababa" d="M98.3073046579189 -22.402511364036336 L27.551918212127436 -8.963025742088348 L90.79228921377174 -43.88360656969151 z"/>
<path fill="#bababa" stroke="#bababa" d="M78.94437187418914 62.83326454637649 L17.03763062493032 23.446837380225567 L25.103839648715397 14.479690893343419 z"/>
<path fill="#bababa" stroke="#bababa" d="M100.8898452968276 -0.0191551571417223 L27.551918212127436 -8.963025742088348 L98.3073046579189 -22.402511364036336 z"/>
<path fill="#bababa" stroke="#bababa" d="M-27.551918212127436 -8.963025742088348 L-98.3073046579189 -22.402511364036336 L-90.79228921377174 -43.88360656969151 z"/>
<path fill="#bababa" stroke="#bababa" d="M11.799868761977175 -26.446290859547645 L22.40795083525118 -98.30641747943174 L43.870042787861365 -90.79881011274414 z"/>
<path fill="#bababa" stroke="#bababa" d="M-17.03763062493032 23.446837380225567 L-43.84489147719512 90.81104251774869 L-62.824111877157534 78.95158891169001 z"/>
<path fill="#bababa" stroke="#bababa" d="M78.96509407136263 -62.80715929448816 L90.79228921377174 -43.88360656969151 L21.51847504525004 -19.40701744674128 z"/>
<path fill="#bababa" stroke="#bababa" d="M22.423430798832385 98.30254789986184 L6.034327199814632 28.305180853472184 L43.84489147719512 90.81104251774869 z"/>
<path fill="#bababa" stroke="#bababa" d="M-11.093124460738814 -26.132297545929262 L-11.305512285803976 -26.086965757180174 L-11.799868761977175 -26.446290859547645 z"/>
<path fill="#bababa" stroke="#bababa" d="M27.551918212127436 -8.963025742088348 L28.77801856934838 3.0479187279399973 L28.28440523598891 2.6891337820800016 L27.10975609756097 -8.82142857142857 L26.846946032961252 -9.27623173491673 z"/>
<path fill="#bababa" stroke="#bababa" d="M43.47826086956521 89.99999999999999 L43.4782608698569 89.9999999998177 L43.47826086956521 90 L22.22222222222222 97.43589743589743 L0 100 L22.222222222222218 97.43589743589743 L43.47826086956521 89.99999999999999 z"/>
<path fill="#bababa" stroke="#bababa" d="M89.9999999998177 43.4782608698569 L89.99999999999999 43.47826086956521 L97.43589743589743 22.222222222222218 L100 0 L97.43589743589743 22.22222222222222 L90 43.47826086956521 z"/>
<path fill="#bababa" stroke="#bababa" d="M-89.99999999999999 43.47826086956521 L-89.9999999998177 43.4782608698569 L-90 43.47826086956521 L-97.43589743589743 22.22222222222222 L-100 0 L-97.43589743589743 22.222222222222218 z"/>
<path fill="#bababa" stroke="#bababa" d="M-22.22222222222222 97.43589743589743 L-22.222222222222218 97.43589743589743 L0 100 L-22.22222222222222 97.43589743589743 L-43.47826086956521 90 L-43.4782608698569 89.9999999998177 L-43.47826086956521 89.99999999999999 z"/>
<path fill="#bababa" stroke="#bababa" d="M-89.99999999999999 -43.47826086956521 L-97.43589743589743 -22.222222222222218 L-100 0 L-97.43589743589743 -22.22222222222222 L-90 -43.47826086956521 L-89.9999999998177 -43.4782608698569 z"/>
<path fill="#bababa" stroke="#bababa" d="M97.43589743589743 -22.222222222222218 L89.99999999999999 -43.47826086956521 L89.9999999998177 -43.4782608698569 L90 -43.47826086956521 L97.43589743589743 -22.22222222222222 L100 0 z"/>
<path fill="#bababa" stroke="#bababa" d="M-43.478260869565176 -90 L-43.47826086956521 -89.99999999999999 L-43.4782608698569 -89.9999999998177 L-43.47826086956521 -90 L-22.22222222222222 -97.43589743589743 L0 -100 L-22.222222222222218 -97.43589743589743 z"/>
<path fill="#bababa" stroke="#bababa" d="M22.22222222222222 -97.43589743589743 L22.222222222222218 -97.43589743589743 L0 -100 L22.22222222222222 -97.43589743589743 L43.47826086956521 -90 L43.4782608698569 -89.9999999998177 L43.47826086956521 -89.99999999999999 z"/>
<path fill="#bababa" stroke="#bababa" d="M21.20936572073954 -97.55276549376082 L21.43051185293002 -97.52724863235422 L22.40795083525118 -98.30641747943174 z"/>
<path fill="#bababa" stroke="#bababa" d="M-98.3073046579189 -22.402511364036336 L-100.8898452968276 -0.019155157141722296 L-99.9074277689709 -0.8022926689187484 L-97.43589743589743 -22.222222222222218 L-97.10931153495227 -23.15579111447926 z"/>
<path fill="#bababa" stroke="#bababa" d="M0 100.89025156402991 L6.034327199814632 28.305180853472184 L22.423430798832385 98.30254789986184 z"/>
<path fill="#bababa" stroke="#bababa" d="M-27.551918212127436 -8.963025742088348 L-28.77801856934838 3.0479187279399973 L-100.8898452968276 -0.019155157141722296 z"/>
<path fill="#bababa" stroke="#bababa" d="M52.0428223684942 -84.64808405896619 L55.65417987977546 -82.39137986741882 L62.80069758646322 -78.9703272739192 L43.870042787861365 -90.79881011274414 L22.40795083525118 -98.30641747943174 L29.6667602310121 -94.83161062547984 L43.47826086956521 -89.99999999999999 z"/>
<path fill="#bababa" stroke="#bababa" d="M-62.80069758646322 -78.9703272739192 L-21.51847504525004 -19.40701744674128 L-78.96509407136264 -62.80715929448816 z"/>
<path fill="#bababa" stroke="#bababa" d="M-78.96509407136264 -62.80715929448816 L-21.51847504525004 -19.40701744674128 L-90.79228921377174 -43.88360656969151 z"/>
<path fill="#bababa" stroke="#bababa" d="M1.114336349859766e-16 -28.96381066985079 L22.40795083525118 -98.30641747943174 L11.799868761977175 -26.446290859547645 z"/>
<path fill="#bababa" stroke="#bababa" d="M-90.79228921377174 -43.88360656969151 L-21.51847504525004 -19.40701744674128 L-27.551918212127436 -8.963025742088348 z"/>
<path fill="#bababa" stroke="#bababa" d="M-6.034327199814632 28.305180853472184 L-43.84489147719512 90.81104251774869 L-17.03763062493032 23.446837380225567 z"/>
<path fill="#bababa" stroke="#bababa" d="M62.824111877157534 78.95158891169001 L17.03763062493032 23.446837380225567 L78.94437187418914 62.83326454637649 z"/>
</svg>