<?xml version="1.0" encoding="UTF-8"?>
<!-- Generated by jsxcad -->
<!DOCTYPE svg PUBLIC "-//W3C//DTD SVG 1.1 Tiny//EN" "http://www.w3.org/Graphics/SVG/1.1/DTD/svg11-tiny.dtd">
<svg baseProfile="tiny" height="230.00000000000045mm" width="230.00000000000045mm" viewBox="-115.00000000000023 -115.00000000000023 230.00000000000045 230.00000000000045" version="1.1" stroke="black" stroke-width=".1" fill="none" xmlns="http://www.w3.org/2000/svg">
<path fill="#bababa" stroke="#bababa" d="M0 -29.5 L-1.84375 -29.412462908011864 L-1.84375 -29.412462908011864 L0 -29.5 z"/>
<path fill="#bababa" stroke="#bababa" d="M1.84375 -29.412462908011864 L0 -29.5 L0 -29.5 L1.84375 -29.412462908011864 z"/>
<path fill="#bababa" stroke="#bababa" d="M3.6875 -29.238938053097343 L1.84375 -29.412462908011864 L1.84375 -29.412462908011864 L3.6875 -29.238938053097343 z"/>
<path fill="#bababa" stroke="#bababa" d="M5.53125 -28.9537037037037 L3.6875 -29.238938053097343 L3.6875 -29.238938053097343 L5.53125 -28.9537037037037 z"/>
<path fill="#bababa" stroke="#bababa" d="M7.307339449541283 -28.54838709677419 L5.53125 -28.9537037037037 L5.53125 -28.9537037037037 L7.307339449541283 -28.54838709677419 z"/>
<path fill="#bababa" stroke="#bababa" d="M10.868421052631577 -27.441860465116278 L9.13095238095238 -28.060975609756095 L9.13095238095238 -28.060975609756095 L10.868421052631577 -27.441860465116278 z"/>
<path fill="#bababa" stroke="#bababa" d="M12.5375 -26.690476190476186 L10.868421052631577 -27.441860465116278 L10.868421052631577 -27.441860465116278 L12.5375 -26.690476190476186 z"/>
<path fill="#bababa" stroke="#bababa" d="M7.307339449541283 -28.54838709677419 L7.307339449541283 -28.54838709677419 L9.13095238095238 -28.060975609756095 L9.13095238095238 -28.060975609756095 z"/>
<path fill="#bababa" stroke="#bababa" d="M14.203703703703702 -25.877192982456137 L12.5375 -26.690476190476186 L12.5375 -26.690476190476186 L14.203703703703702 -25.877192982456137 z"/>
<path fill="#bababa" stroke="#bababa" d="M15.803571428571427 -24.890625 L14.203703703703702 -25.877192982456137 L14.203703703703702 -25.877192982456137 L15.803571428571427 -24.890625 z"/>
<path fill="#bababa" stroke="#bababa" d="M18.82978723404255 -22.757142857142853 L17.352941176470583 -23.880952380952376 L17.352941176470583 -23.880952380952376 L18.82978723404255 -22.757142857142853 z"/>
<path fill="#bababa" stroke="#bababa" d="M18.82978723404255 -22.757142857142853 L20.184210526315784 -21.527027027027025 L20.184210526315784 -21.527027027027025 L18.82978723404255 -22.757142857142853 z"/>
<path fill="#bababa" stroke="#bababa" d="M15.803571428571427 -24.890625 L17.352941176470583 -23.880952380952376 L17.352941176470583 -23.880952380952376 L15.803571428571427 -24.890625 z"/>
<path fill="#bababa" stroke="#bababa" d="M20.184210526315784 -21.527027027027025 L21.527027027027025 -20.184210526315784 L21.527027027027025 -20.184210526315784 L20.184210526315784 -21.527027027027025 z"/>
<path fill="#bababa" stroke="#bababa" d="M21.527027027027025 -20.184210526315784 L22.757142857142853 -18.82978723404255 L22.757142857142853 -18.82978723404255 L21.527027027027025 -20.184210526315784 z"/>
<path fill="#bababa" stroke="#bababa" d="M22.757142857142853 -18.82978723404255 L23.880952380952376 -17.352941176470583 L23.880952380952376 -17.352941176470583 L22.757142857142853 -18.82978723404255 z"/>
<path fill="#bababa" stroke="#bababa" d="M23.880952380952376 -17.352941176470583 L23.880952380952376 -17.352941176470583 L24.890625 -15.803571428571427 L24.890625 -15.803571428571427 z"/>
<path fill="#bababa" stroke="#bababa" d="M25.877192982456137 -14.203703703703702 L24.890625 -15.803571428571427 L24.890625 -15.803571428571427 L25.877192982456137 -14.203703703703702 z"/>
<path fill="#bababa" stroke="#bababa" d="M25.877192982456137 -14.203703703703702 L25.877192982456137 -14.203703703703702 L26.690476190476186 -12.5375 L26.690476190476186 -12.5375 z"/>
<path fill="#bababa" stroke="#bababa" d="M27.441860465116278 -10.868421052631577 L26.690476190476186 -12.5375 L26.690476190476186 -12.5375 L27.441860465116278 -10.868421052631577 z"/>
<path fill="#bababa" stroke="#bababa" d="M28.060975609756095 -9.13095238095238 L27.441860465116278 -10.868421052631577 L27.441860465116278 -10.868421052631577 L28.060975609756095 -9.13095238095238 z"/>
<path fill="#bababa" stroke="#bababa" d="M28.54838709677419 -7.307339449541283 L28.060975609756095 -9.13095238095238 L28.060975609756095 -9.13095238095238 L28.54838709677419 -7.307339449541283 z"/>
<path fill="#bababa" stroke="#bababa" d="M28.54838709677419 -7.307339449541283 L28.9537037037037 -5.53125 L28.9537037037037 -5.53125 L28.54838709677419 -7.307339449541283 z"/>
<path fill="#bababa" stroke="#bababa" d="M28.9537037037037 -5.53125 L28.9537037037037 -5.53125 L29.238938053097343 -3.6875 L29.238938053097343 -3.6875 z"/>
<path fill="#bababa" stroke="#bababa" d="M29.5 0 L29.412462908011864 -1.84375 L29.412462908011864 -1.84375 L29.5 0 z"/>
<path fill="#bababa" stroke="#bababa" d="M29.412462908011864 1.84375 L29.5 0 L29.5 0 L29.412462908011864 1.84375 z"/>
<path fill="#bababa" stroke="#bababa" d="M29.412462908011864 -1.84375 L29.238938053097343 -3.6875 L29.238938053097343 -3.6875 L29.412462908011864 -1.84375 z"/>
<path fill="#bababa" stroke="#bababa" d="M29.238938053097343 3.6875 L29.412462908011864 1.84375 L29.412462908011864 1.84375 L29.238938053097343 3.6875 z"/>
<path fill="#bababa" stroke="#bababa" d="M29.238938053097343 3.6875 L28.9537037037037 5.53125 L28.9537037037037 5.53125 L29.238938053097343 3.6875 z"/>
<path fill="#bababa" stroke="#bababa" d="M28.54838709677419 7.307339449541283 L28.9537037037037 5.53125 L28.9537037037037 5.53125 L28.54838709677419 7.307339449541283 z"/>
<path fill="#bababa" stroke="#bababa" d="M28.471995554538214 7.593152582761076 L28.060975609756095 9.13095238095238 L28.060975609756095 9.13095238095238 L28.54838709677419 7.307339449541283 L28.54838709677419 7.307339449541283 z"/>
<path fill="#bababa" stroke="#bababa" d="M27.441860465116278 10.868421052631577 L28.060975609756095 9.13095238095238 L28.060975609756095 9.13095238095238 L27.441860465116278 10.868421052631577 z"/>
<path fill="#bababa" stroke="#bababa" d="M26.690476190476186 12.5375 L27.441860465116278 10.868421052631577 L27.441860465116278 10.868421052631577 L26.690476190476186 12.5375 z"/>
<path fill="#bababa" stroke="#bababa" d="M25.877192982456137 14.203703703703702 L26.690476190476186 12.5375 L26.690476190476186 12.5375 L25.877192982456137 14.203703703703702 z"/>
<path fill="#bababa" stroke="#bababa" d="M25.877192982456137 14.203703703703702 L24.890625 15.803571428571427 L24.890625 15.803571428571427 L25.877192982456137 14.203703703703702 z"/>
<path fill="#bababa" stroke="#bababa" d="M22.757142857142853 18.82978723404255 L23.880952380952376 17.352941176470583 L23.880952380952376 17.352941176470583 L22.757142857142853 18.82978723404255 z"/>
<path fill="#bababa" stroke="#bababa" d="M22.757142857142853 18.82978723404255 L22.757142857142853 18.82978723404255 L21.527027027027025 20.184210526315784 L21.527027027027025 20.184210526315784 z"/>
<path fill="#bababa" stroke="#bababa" d="M23.880952380952376 17.352941176470583 L24.890625 15.803571428571427 L24.890625 15.803571428571427 L23.880952380952376 17.352941176470583 z"/>
<path fill="#bababa" stroke="#bababa" d="M20.184210526315784 21.527027027027025 L21.527027027027025 20.184210526315784 L21.527027027027025 20.184210526315784 L20.184210526315784 21.527027027027025 z"/>
<path fill="#bababa" stroke="#bababa" d="M18.82978723404255 22.757142857142853 L20.184210526315784 21.527027027027025 L20.184210526315784 21.527027027027025 L18.82978723404255 22.757142857142853 z"/>
<path fill="#bababa" stroke="#bababa" d="M17.352941176470583 23.880952380952376 L18.82978723404255 22.757142857142853 L18.82978723404255 22.757142857142853 L17.352941176470583 23.880952380952376 z"/>
<path fill="#bababa" stroke="#bababa" d="M17.352941176470583 23.880952380952376 L17.352941176470583 23.880952380952376 L15.803571428571427 24.890625 L15.803571428571427 24.890625 z"/>
<path fill="#bababa" stroke="#bababa" d="M14.203703703703702 25.877192982456137 L15.803571428571427 24.890625 L15.803571428571427 24.890625 L14.203703703703702 25.877192982456137 z"/>
<path fill="#bababa" stroke="#bababa" d="M14.203703703703702 25.877192982456137 L12.5375 26.690476190476186 L12.5375 26.690476190476186 L14.203703703703702 25.877192982456137 z"/>
<path fill="#bababa" stroke="#bababa" d="M10.868421052631577 27.441860465116278 L12.5375 26.690476190476186 L12.5375 26.690476190476186 L10.868421052631577 27.441860465116278 z"/>
<path fill="#bababa" stroke="#bababa" d="M9.13095238095238 28.060975609756095 L10.868421052631577 27.441860465116278 L10.868421052631577 27.441860465116278 L9.13095238095238 28.060975609756095 z"/>
<path fill="#bababa" stroke="#bababa" d="M7.307339449541283 28.54838709677419 L9.13095238095238 28.060975609756095 L9.13095238095238 28.060975609756095 L7.307339449541283 28.54838709677419 z"/>
<path fill="#bababa" stroke="#bababa" d="M5.53125 28.9537037037037 L7.307339449541283 28.54838709677419 L7.307339449541283 28.54838709677419 L5.53125 28.9537037037037 z"/>
<path fill="#bababa" stroke="#bababa" d="M5.53125 28.9537037037037 L3.6875 29.238938053097343 L3.6875 29.238938053097343 L5.53125 28.9537037037037 z"/>
<path fill="#bababa" stroke="#bababa" d="M1.84375 29.412462908011864 L3.6875 29.238938053097343 L3.6875 29.238938053097343 L1.84375 29.412462908011864 z"/>
<path fill="#bababa" stroke="#bababa" d="M0 29.5 L1.84375 29.412462908011864 L1.84375 29.412462908011864 L0 29.5 z"/>
<path fill="#bababa" stroke="#bababa" d="M-1.84375 29.412462908011864 L0 29.5 L0 29.5 L-1.84375 29.412462908011864 z"/>
<path fill="#bababa" stroke="#bababa" d="M-3.6875 29.238938053097343 L-1.84375 29.412462908011864 L-1.84375 29.412462908011864 L-3.6875 29.238938053097343 z"/>
<path fill="#bababa" stroke="#bababa" d="M-5.53125 28.9537037037037 L-3.6875 29.238938053097343 L-3.6875 29.238938053097343 L-5.53125 28.9537037037037 z"/>
<path fill="#bababa" stroke="#bababa" d="M-7.307339449541283 28.54838709677419 L-5.53125 28.9537037037037 L-5.53125 28.9537037037037 L-7.307339449541283 28.54838709677419 z"/>
<path fill="#bababa" stroke="#bababa" d="M-7.307339449541283 28.54838709677419 L-9.13095238095238 28.060975609756095 L-9.13095238095238 28.060975609756095 L-7.307339449541283 28.54838709677419 z"/>
<path fill="#bababa" stroke="#bababa" d="M-10.868421052631577 27.441860465116278 L-9.13095238095238 28.060975609756095 L-9.13095238095238 28.060975609756095 L-10.868421052631577 27.441860465116278 z"/>
<path fill="#bababa" stroke="#bababa" d="M-12.5375 26.690476190476186 L-10.868421052631577 27.441860465116278 L-10.868421052631577 27.441860465116278 L-12.5375 26.690476190476186 z"/>
<path fill="#bababa" stroke="#bababa" d="M-14.203703703703702 25.877192982456137 L-12.5375 26.690476190476186 L-12.5375 26.690476190476186 L-14.203703703703702 25.877192982456137 z"/>
<path fill="#bababa" stroke="#bababa" d="M-14.203703703703702 25.877192982456137 L-14.203703703703702 25.877192982456137 L-15.803571428571427 24.890625 L-15.803571428571427 24.890625 z"/>
<path fill="#bababa" stroke="#bababa" d="M-18.772607550476863 22.800653873494266 L-18.82978723404255 22.757142857142853 L-18.82978723404255 22.757142857142853 L-17.352941176470583 23.880952380952376 L-17.352941176470583 23.880952380952376 z"/>
<path fill="#bababa" stroke="#bababa" d="M-18.82978723404255 22.757142857142853 L-20.184210526315784 21.527027027027025 L-20.184210526315784 21.527027027027025 L-18.82978723404255 22.757142857142853 z"/>
<path fill="#bababa" stroke="#bababa" d="M-16.663010967100696 24.33055690072509 L-17.352941176470583 23.880952380952376 L-17.352941176470583 23.880952380952376 L-15.803571428571427 24.890625 L-15.803571428571427 24.890625 z"/>
<path fill="#bababa" stroke="#bababa" d="M-20.184210526315784 21.527027027027025 L-20.184210526315784 21.527027027027025 L-21.527027027027025 20.184210526315784 L-21.527027027027025 20.184210526315784 z"/>
<path fill="#bababa" stroke="#bababa" d="M-22.757142857142853 18.82978723404255 L-21.527027027027025 20.184210526315784 L-21.527027027027025 20.184210526315784 L-22.757142857142853 18.82978723404255 z"/>
<path fill="#bababa" stroke="#bababa" d="M-22.757142857142853 18.82978723404255 L-23.880952380952376 17.352941176470583 L-23.880952380952376 17.352941176470583 L-22.757142857142853 18.82978723404255 z"/>
<path fill="#bababa" stroke="#bababa" d="M-24.890625 15.803571428571427 L-23.880952380952376 17.352941176470583 L-23.880952380952376 17.352941176470583 L-24.890625 15.803571428571427 z"/>
<path fill="#bababa" stroke="#bababa" d="M-25.877192982456137 14.203703703703702 L-24.890625 15.803571428571427 L-24.890625 15.803571428571427 L-25.877192982456137 14.203703703703702 z"/>
<path fill="#bababa" stroke="#bababa" d="M-26.690476190476186 12.5375 L-25.877192982456137 14.203703703703702 L-25.877192982456137 14.203703703703702 L-26.690476190476186 12.5375 z"/>
<path fill="#bababa" stroke="#bababa" d="M-27.441860465116278 10.868421052631577 L-26.690476190476186 12.5375 L-26.690476190476186 12.5375 L-27.441860465116278 10.868421052631577 z"/>
<path fill="#bababa" stroke="#bababa" d="M-28.060975609756095 9.13095238095238 L-27.441860465116278 10.868421052631577 L-27.441860465116278 10.868421052631577 L-28.060975609756095 9.13095238095238 z"/>
<path fill="#bababa" stroke="#bababa" d="M-28.548303318142136 7.307652900908057 L-28.54838709677419 7.307339449541283 L-28.54838709677419 7.307339449541283 L-28.060975609756095 9.13095238095238 L-28.060975609756095 9.13095238095238 z"/>
<path fill="#bababa" stroke="#bababa" d="M-28.9537037037037 5.53125 L-28.54838709677419 7.307339449541283 L-28.54838709677419 7.307339449541283 L-28.9537037037037 5.53125 z"/>
<path fill="#bababa" stroke="#bababa" d="M-29.238938053097343 3.6875 L-28.9537037037037 5.53125 L-28.9537037037037 5.53125 L-29.238938053097343 3.6875 z"/>
<path fill="#bababa" stroke="#bababa" d="M-29.412462908011864 1.84375 L-29.238938053097343 3.6875 L-29.238938053097343 3.6875 L-29.412462908011864 1.84375 z"/>
<path fill="#bababa" stroke="#bababa" d="M-29.5 0 L-29.412462908011864 1.84375 L-29.412462908011864 1.84375 L-29.5 0 z"/>
<path fill="#bababa" stroke="#bababa" d="M-29.412462908011864 -1.84375 L-29.5 0 L-29.5 0 L-29.412462908011864 -1.84375 z"/>
<path fill="#bababa" stroke="#bababa" d="M-29.238938053097343 -3.6875 L-29.412462908011864 -1.84375 L-29.412462908011864 -1.84375 L-29.238938053097343 -3.6875 z"/>
<path fill="#bababa" stroke="#bababa" d="M-28.9537037037037 -5.53125 L-29.238938053097343 -3.6875 L-29.238938053097343 -3.6875 L-28.9537037037037 -5.53125 z"/>
<path fill="#bababa" stroke="#bababa" d="M-28.9537037037037 -5.53125 L-28.9537037037037 -5.53125 L-28.54838709677419 -7.307339449541283 L-28.54838709677419 -7.307339449541283 z"/>
<path fill="#bababa" stroke="#bababa" d="M-28.54838709677419 -7.307339449541283 L-28.060975609756095 -9.13095238095238 L-28.060975609756095 -9.13095238095238 L-28.54838709677419 -7.307339449541283 z"/>
<path fill="#bababa" stroke="#bababa" d="M-27.441860465116278 -10.868421052631577 L-28.060975609756095 -9.13095238095238 L-28.060975609756095 -9.13095238095238 L-27.441860465116278 -10.868421052631577 z"/>
<path fill="#bababa" stroke="#bababa" d="M-26.690476190476186 -12.5375 L-27.441860465116278 -10.868421052631577 L-27.441860465116278 -10.868421052631577 L-26.690476190476186 -12.5375 z"/>
<path fill="#bababa" stroke="#bababa" d="M-25.877192982456137 -14.203703703703702 L-26.690476190476186 -12.5375 L-26.690476190476186 -12.5375 L-25.877192982456137 -14.203703703703702 z"/>
<path fill="#bababa" stroke="#bababa" d="M-25.877192982456137 -14.203703703703702 L-25.877192982456137 -14.203703703703702 L-24.890625 -15.803571428571427 L-24.890625 -15.803571428571427 z"/>
<path fill="#bababa" stroke="#bababa" d="M-23.880952380952376 -17.352941176470583 L-22.757142857142853 -18.82978723404255 L-22.757142857142853 -18.82978723404255 L-23.880952380952376 -17.352941176470583 z"/>
<path fill="#bababa" stroke="#bababa" d="M-22.757142857142853 -18.82978723404255 L-21.527027027027025 -20.184210526315784 L-21.527027027027025 -20.184210526315784 L-22.757142857142853 -18.82978723404255 z"/>
<path fill="#bababa" stroke="#bababa" d="M-21.527027027027025 -20.184210526315784 L-21.527027027027025 -20.184210526315784 L-20.184210526315784 -21.527027027027025 L-20.184210526315784 -21.527027027027025 z"/>
<path fill="#bababa" stroke="#bababa" d="M-20.184210526315784 -21.527027027027025 L-18.82978723404255 -22.757142857142853 L-18.82978723404255 -22.757142857142853 L-20.184210526315784 -21.527027027027025 z"/>
<path fill="#bababa" stroke="#bababa" d="M-18.82978723404255 -22.757142857142853 L-18.82978723404255 -22.757142857142853 L-17.352941176470583 -23.880952380952376 L-17.352941176470583 -23.880952380952376 z"/>
<path fill="#bababa" stroke="#bababa" d="M-17.352941176470583 -23.880952380952376 L-15.803571428571427 -24.890625 L-15.803571428571427 -24.890625 L-17.352941176470583 -23.880952380952376 z"/>
<path fill="#bababa" stroke="#bababa" d="M-24.890625 -15.803571428571427 L-23.880952380952376 -17.352941176470583 L-23.880952380952376 -17.352941176470583 L-24.890625 -15.803571428571427 z"/>
<path fill="#bababa" stroke="#bababa" d="M-15.802912049006126 -24.891031610344903 L-14.203703703703702 -25.877192982456137 L-14.203703703703702 -25.877192982456137 L-15.803571428571427 -24.890625 L-15.803571428571427 -24.890625 z"/>
<path fill="#bababa" stroke="#bababa" d="M-14.202766317021197 -25.877650526060563 L-12.5375 -26.690476190476186 L-12.5375 -26.690476190476186 L-14.203703703703702 -25.877192982456137 L-14.203703703703702 -25.877192982456137 z"/>
<path fill="#bababa" stroke="#bababa" d="M-10.868421052631577 -27.441860465116278 L-12.5375 -26.690476190476186 L-12.5375 -26.690476190476186 L-10.868421052631577 -27.441860465116278 z"/>
<path fill="#bababa" stroke="#bababa" d="M-9.13095238095238 -28.060975609756095 L-10.868421052631577 -27.441860465116278 L-10.868421052631577 -27.441860465116278 L-9.13095238095238 -28.060975609756095 z"/>
<path fill="#bababa" stroke="#bababa" d="M-1.84375 -29.412462908011864 L-3.6875 -29.238938053097343 L-3.6875 -29.238938053097343 L-1.84375 -29.412462908011864 z"/>
<path fill="#bababa" stroke="#bababa" d="M-9.13095238095238 -28.060975609756095 L-9.13095238095238 -28.060975609756095 L-7.307339449541283 -28.54838709677419 L-7.307339449541283 -28.54838709677419 z"/>
<path fill="#bababa" stroke="#bababa" d="M-5.53125 -28.9537037037037 L-7.307339449541283 -28.54838709677419 L-7.307339449541283 -28.54838709677419 L-5.53125 -28.9537037037037 z"/>
<path fill="#bababa" stroke="#bababa" d="M-5.53125 -28.9537037037037 L-3.6875 -29.238938053097343 L-3.6875 -29.238938053097343 L-5.53125 -28.9537037037037 z"/>
<path fill="#bababa" stroke="#bababa" d="M-29.412462908011864 -1.84375 L-29.5 0 L-29.412462908011864 1.84375 L-29.238938053097343 3.6875 L-28.9537037037037 5.53125 L-28.54838709677419 7.307339449541283 L-28.060975609756095 9.13095238095238 L-27.441860465116278 10.868421052631577 L-26.690476190476186 12.5375 L-25.877192982456137 14.203703703703702 L-24.890625 15.803571428571427 L-23.880952380952376 17.352941176470583 L-22.757142857142853 18.82978723404255 L-21.527027027027025 20.184210526315784 L-20.184210526315784 21.527027027027025 L-18.82978723404255 22.757142857142853 L-17.352941176470583 23.880952380952376 L-15.803571428571427 24.890625 L-14.203703703703702 25.877192982456137 L-12.5375 26.690476190476186 L-10.868421052631577 27.441860465116278 L-9.13095238095238 28.060975609756095 L-7.307339449541283 28.54838709677419 L-5.53125 28.9537037037037 L-3.6875 29.238938053097343 L-1.84375 29.412462908011864 L0 29.5 L1.84375 29.412462908011864 L3.6875 29.238938053097343 L5.53125 28.9537037037037 L7.307339449541283 28.54838709677419 L9.13095238095238 28.060975609756095 L10.868421052631577 27.441860465116278 L12.5375 26.690476190476186 L14.203703703703702 25.877192982456137 L15.803571428571427 24.890625 L17.352941176470583 23.880952380952376 L18.82978723404255 22.757142857142853 L20.184210526315784 21.527027027027025 L21.527027027027025 20.184210526315784 L22.757142857142853 18.82978723404255 L23.880952380952376 17.352941176470583 L24.890625 15.803571428571427 L25.877192982456137 14.203703703703702 L26.690476190476186 12.5375 L27.441860465116278 10.868421052631577 L28.060975609756095 9.13095238095238 L28.54838709677419 7.307339449541283 L28.9537037037037 5.53125 L29.238938053097343 3.6875 L29.412462908011864 1.84375 L29.5 0 L29.412462908011864 -1.84375 L29.238938053097343 -3.6875 L28.9537037037037 -5.53125 L28.54838709677419 -7.307339449541283 L28.060975609756095 -9.13095238095238 L27.441860465116278 -10.868421052631577 L26.690476190476186 -12.5375 L25.877192982456137 -14.203703703703702 L24.890625 -15.803571428571427 L23.880952380952376 -17.352941176470583 L22.757142857142853 -18.82978723404255 L21.527027027027025 -20.184210526315784 L20.184210526315784 -21.527027027027025 L18.82978723404255 -22.757142857142853 L17.352941176470583 -23.880952380952376 L15.803571428571427 -24.890625 L14.203703703703702 -25.877192982456137 L12.5375 -26.690476190476186 L10.868421052631577 -27.441860465116278 L9.13095238095238 -28.060975609756095 L7.307339449541283 -28.54838709677419 L5.53125 -28.9537037037037 L3.6875 -29.238938053097343 L1.84375 -29.412462908011864 L0 -29.5 L-1.84375 -29.412462908011864 L-3.6875 -29.238938053097343 L-5.53125 -28.9537037037037 L-7.307339449541283 -28.54838709677419 L-9.13095238095238 -28.060975609756095 L-10.868421052631577 -27.441860465116278 L-12.5375 -26.690476190476186 L-14.203703703703702 -25.877192982456137 L-15.803571428571427 -24.890625 L-17.352941176470583 -23.880952380952376 L-18.82978723404255 -22.757142857142853 L-20.184210526315784 -21.527027027027025 L-21.527027027027025 -20.184210526315784 L-22.757142857142853 -18.82978723404255 L-23.880952380952376 -17.352941176470583 L-24.890625 -15.803571428571427 L-25.877192982456137 -14.203703703703702 L-26.690476190476186 -12.5375 L-27.441860465116278 -10.868421052631577 L-28.060975609756095 -9.13095238095238 L-28.54838709677419 -7.307339449541283 L-28.9537037037037 -5.53125 L-29.238938053097343 -3.6875 z"/>
<path fill="#bababa" stroke="#bababa" d="M-1.84375 -29.412462908011864 L0 -29.5 L1.84375 -29.412462908011864 L3.6875 -29.238938053097343 L5.53125 -28.9537037037037 L7.307339449541283 -28.54838709677419 L9.13095238095238 -28.060975609756095 L10.868421052631577 -27.441860465116278 L12.5375 -26.690476190476186 L14.203703703703702 -25.877192982456137 L15.803571428571427 -24.890625 L17.352941176470583 -23.880952380952376 L18.82978723404255 -22.757142857142853 L20.184210526315784 -21.527027027027025 L21.527027027027025 -20.184210526315784 L22.757142857142853 -18.82978723404255 L23.880952380952376 -17.352941176470583 L24.890625 -15.803571428571427 L25.877192982456137 -14.203703703703702 L26.690476190476186 -12.5375 L27.441860465116278 -10.868421052631577 L28.060975609756095 -9.13095238095238 L28.54838709677419 -7.307339449541283 L28.9537037037037 -5.53125 L29.238938053097343 -3.6875 L29.412462908011864 -1.84375 L29.5 0 L29.412462908011864 1.84375 L29.238938053097343 3.6875 L28.9537037037037 5.53125 L28.54838709677419 7.307339449541283 L28.060975609756095 9.13095238095238 L27.441860465116278 10.868421052631577 L26.690476190476186 12.5375 L25.877192982456137 14.203703703703702 L24.890625 15.803571428571427 L23.880952380952376 17.352941176470583 L22.757142857142853 18.82978723404255 L21.527027027027025 20.184210526315784 L20.184210526315784 21.527027027027025 L18.82978723404255 22.757142857142853 L17.352941176470583 23.880952380952376 L15.803571428571427 24.890625 L14.203703703703702 25.877192982456137 L12.5375 26.690476190476186 L10.868421052631577 27.441860465116278 L9.13095238095238 28.060975609756095 L7.307339449541283 28.54838709677419 L5.53125 28.9537037037037 L3.6875 29.238938053097343 L1.84375 29.412462908011864 L0 29.5 L-1.84375 29.412462908011864 L-3.6875 29.238938053097343 L-5.53125 28.9537037037037 L-7.307339449541283 28.54838709677419 L-9.13095238095238 28.060975609756095 L-10.868421052631577 27.441860465116278 L-12.5375 26.690476190476186 L-14.203703703703702 25.877192982456137 L-15.803571428571427 24.890625 L-17.352941176470583 23.880952380952376 L-18.82978723404255 22.757142857142853 L-20.184210526315784 21.527027027027025 L-21.527027027027025 20.184210526315784 L-22.757142857142853 18.82978723404255 L-23.880952380952376 17.352941176470583 L-24.890625 15.803571428571427 L-25.877192982456137 14.203703703703702 L-26.690476190476186 12.5375 L-27.441860465116278 10.868421052631577 L-28.060975609756095 9.13095238095238 L-28.54838709677419 7.307339449541283 L-28.9537037037037 5.53125 L-29.238938053097343 3.6875 L-29.412462908011864 1.84375 L-29.5 0 L-29.412462908011864 -1.84375 L-29.238938053097343 -3.6875 L-28.9537037037037 -5.53125 L-28.54838709677419 -7.307339449541283 L-28.060975609756095 -9.13095238095238 L-27.441860465116278 -10.868421052631577 L-26.690476190476186 -12.5375 L-25.877192982456137 -14.203703703703702 L-24.890625 -15.803571428571427 L-23.880952380952376 -17.352941176470583 L-22.757142857142853 -18.82978723404255 L-21.527027027027025 -20.184210526315784 L-20.184210526315784 -21.527027027027025 L-18.82978723404255 -22.757142857142853 L-17.352941176470583 -23.880952380952376 L-15.803571428571427 -24.890625 L-14.203703703703702 -25.877192982456137 L-12.5375 -26.690476190476186 L-10.868421052631577 -27.441860465116278 L-9.13095238095238 -28.060975609756095 L-7.307339449541283 -28.54838709677419 L-5.53125 -28.9537037037037 L-3.6875 -29.238938053097343 z"/>
<path fill="#bababa" stroke="#bababa" d="M-23.88 17.352941176470587 L-93.09523809523809 67.6470588235294 L-24.891304347826086 15.804347826086955 z"/>
<path fill="#bababa" stroke="#bababa" d="M-23.88 17.352941176470587 L-22.757575757575754 18.829268292682926 L-93.09523809523809 67.6470588235294 z"/>
<path fill="#bababa" stroke="#bababa" d="M-25.878048780487802 14.204545454545453 L-100.8780487804878 55.37037037037037 L-104.04761904761904 48.875 z"/>
<path fill="#bababa" stroke="#bababa" d="M-25.878048780487802 14.204545454545453 L-24.891304347826086 15.804347826086955 L-100.8780487804878 55.37037037037037 z"/>
<path fill="#bababa" stroke="#bababa" d="M14.204545454545453 25.878048780487802 L15.804347826086955 24.891304347826086 L55.37037037037037 100.8780487804878 z"/>
<path fill="#bababa" stroke="#bababa" d="M14.204545454545453 25.878048780487802 L55.37037037037037 100.8780487804878 L48.875 104.04761904761904 z"/>
<path fill="#bababa" stroke="#bababa" d="M-10.868421052631579 27.441176470588232 L-42.368421052631575 106.97619047619047 L-12.538461538461538 26.68965517241379 z"/>
<path fill="#bababa" stroke="#bababa" d="M14.204545454545453 25.878048780487802 L48.875 104.04761904761904 L12.538461538461538 26.68965517241379 z"/>
<path fill="#bababa" stroke="#bababa" d="M-5.53125 28.954545454545453 L-14.375 113.98148148148148 L-21.5625 112.8695652173913 z"/>
<path fill="#bababa" stroke="#bababa" d="M-114.6578947368421 7.1875 L-115 0 L-29.5 0 z"/>
<path fill="#bababa" stroke="#bababa" d="M-5.53125 28.954545454545453 L-3.6875 29.238095238095237 L-14.375 113.98148148148148 z"/>
<path fill="#bababa" stroke="#bababa" d="M-14.204545454545453 25.878048780487802 L-55.37037037037037 100.8780487804878 L-15.804347826086955 24.891304347826086 z"/>
<path fill="#bababa" stroke="#bababa" d="M-1.84375 29.41176470588235 L-14.375 113.98148148148148 L-3.6875 29.238095238095237 z"/>
<path fill="#bababa" stroke="#bababa" d="M114.6578947368421 -7.1875 L29.5 0 L29.41176470588235 -1.84375 z"/>
<path fill="#bababa" stroke="#bababa" d="M-29.41176470588235 -1.84375 L-29.5 0 L-114.6578947368421 -7.1875 z"/>
<path fill="#bababa" stroke="#bababa" d="M-29.41176470588235 -1.84375 L-113.98148148148148 -14.375 L-29.238095238095237 -3.6875 z"/>
<path fill="#bababa" stroke="#bababa" d="M-14.204545454545453 25.878048780487802 L-12.538461538461538 26.68965517241379 L-48.875 104.04761904761904 z"/>
<path fill="#bababa" stroke="#bababa" d="M28.548387096774192 7.3076923076923075 L111.29032258064515 28.485714285714284 L109.39024390243901 35.59459459459459 z"/>
<path fill="#bababa" stroke="#bababa" d="M24.891304347826086 -15.804347826086955 L93.09523809523809 -67.6470588235294 L97.03125 -61.607142857142854 z"/>
<path fill="#bababa" stroke="#bababa" d="M-7.1875 114.6578947368421 L0 29.5 L0 115 z"/>
<path fill="#bababa" stroke="#bababa" d="M28.548387096774192 -7.3076923076923075 L109.39024390243901 -35.59459459459459 L111.29032258064515 -28.485714285714284 z"/>
<path fill="#bababa" stroke="#bababa" d="M-7.3076923076923075 28.548387096774192 L-28.485714285714284 111.29032258064515 L-35.59459459459459 109.39024390243901 z"/>
<path fill="#bababa" stroke="#bababa" d="M9.130434782608695 -28.06060606060606 L35.59459459459459 -109.39024390243901 L42.368421052631575 -106.97619047619047 z"/>
<path fill="#bababa" stroke="#bababa" d="M-1.84375 -29.41176470588235 L-7.1875 -114.6578947368421 L0 -29.5 z"/>
<path fill="#bababa" stroke="#bababa" d="M9.130434782608695 28.06060606060606 L35.59459459459459 109.39024390243901 L7.3076923076923075 28.548387096774192 z"/>
<path fill="#bababa" stroke="#bababa" d="M23.88 17.352941176470587 L93.09523809523809 67.6470588235294 L22.757575757575754 18.829268292682926 z"/>
<path fill="#bababa" stroke="#bababa" d="M-26.68965517241379 -12.538461538461538 L-104.04761904761904 -48.875 L-25.878048780487802 -14.204545454545453 z"/>
<path fill="#bababa" stroke="#bababa" d="M-26.68965517241379 -12.538461538461538 L-27.441176470588232 -10.868421052631579 L-106.97619047619047 -42.368421052631575 z"/>
<path fill="#bababa" stroke="#bababa" d="M29.41176470588235 1.84375 L29.5 0 L114.6578947368421 7.1875 z"/>
<path fill="#bababa" stroke="#bababa" d="M25.878048780487802 14.204545454545453 L100.8780487804878 55.37037037037037 L24.891304347826086 15.804347826086955 z"/>
<path fill="#bababa" stroke="#bababa" d="M-22.757575757575754 -18.829268292682926 L-23.88 -17.352941176470587 L-93.09523809523809 -67.6470588235294 z"/>
<path fill="#bababa" stroke="#bababa" d="M28.548387096774192 -7.3076923076923075 L111.29032258064515 -28.485714285714284 L28.954545454545453 -5.53125 z"/>
<path fill="#bababa" stroke="#bababa" d="M109.39024390243901 35.59459459459459 L106.97619047619047 42.368421052631575 L28.06060606060606 9.130434782608695 z"/>
<path fill="#bababa" stroke="#bababa" d="M5.53125 -28.954545454545453 L14.375 -113.98148148148148 L21.5625 -112.8695652173913 z"/>
<path fill="#bababa" stroke="#bababa" d="M-20.185185185185183 -21.52631578947368 L-78.68421052631578 -83.9189189189189 L-73.4047619047619 -88.71428571428571 z"/>
<path fill="#bababa" stroke="#bababa" d="M-20.185185185185183 -21.52631578947368 L-73.4047619047619 -88.71428571428571 L-18.829268292682926 -22.757575757575754 z"/>
<path fill="#bababa" stroke="#bababa" d="M-73.4047619047619 -88.71428571428571 L-67.6470588235294 -93.09523809523809 L-18.829268292682926 -22.757575757575754 z"/>
<path fill="#bababa" stroke="#bababa" d="M-25.878048780487802 14.204545454545453 L-104.04761904761904 48.875 L-26.68965517241379 12.538461538461538 z"/>
<path fill="#bababa" stroke="#bababa" d="M-113.98148148148148 14.375 L-29.238095238095237 3.6875 L-28.954545454545453 5.53125 z"/>
<path fill="#bababa" stroke="#bababa" d="M-28.548387096774192 7.3076923076923075 L-111.29032258064515 28.485714285714284 L-28.954545454545453 5.53125 z"/>
<path fill="#bababa" stroke="#bababa" d="M15.804347826086955 -24.891304347826086 L67.6470588235294 -93.09523809523809 L17.352941176470587 -23.88 z"/>
<path fill="#bababa" stroke="#bababa" d="M15.804347826086955 -24.891304347826086 L55.37037037037037 -100.8780487804878 L61.607142857142854 -97.03125 z"/>
<path fill="#bababa" stroke="#bababa" d="M-24.891304347826086 -15.804347826086955 L-25.878048780487802 -14.204545454545453 L-100.8780487804878 -55.37037037037037 z"/>
<path fill="#bababa" stroke="#bababa" d="M-21.52631578947368 20.185185185185183 L-88.71428571428571 73.4047619047619 L-22.757575757575754 18.829268292682926 z"/>
<path fill="#bababa" stroke="#bababa" d="M-15.804347826086955 24.891304347826086 L-55.37037037037037 100.8780487804878 L-61.607142857142854 97.03125 z"/>
<path fill="#bababa" stroke="#bababa" d="M104.04761904761904 -48.875 L26.68965517241379 -12.538461538461538 L25.878048780487802 -14.204545454545453 z"/>
<path fill="#bababa" stroke="#bababa" d="M104.04761904761904 -48.875 L106.97619047619047 -42.368421052631575 L26.68965517241379 -12.538461538461538 z"/>
<path fill="#bababa" stroke="#bababa" d="M20.185185185185183 -21.52631578947368 L18.829268292682926 -22.757575757575754 L73.4047619047619 -88.71428571428571 z"/>
<path fill="#bababa" stroke="#bababa" d="M29.41176470588235 1.84375 L113.98148148148148 14.375 L29.238095238095237 3.6875 z"/>
<path fill="#bababa" stroke="#bababa" d="M-93.09523809523809 -67.6470588235294 L-24.891304347826086 -15.804347826086955 L-97.03125 -61.607142857142854 z"/>
<path fill="#bababa" stroke="#bababa" d="M-93.09523809523809 -67.6470588235294 L-23.88 -17.352941176470587 L-24.891304347826086 -15.804347826086955 z"/>
<path fill="#bababa" stroke="#bababa" d="M-93.09523809523809 67.6470588235294 L-97.03125 61.607142857142854 L-24.891304347826086 15.804347826086955 z"/>
<path fill="#bababa" stroke="#bababa" d="M12.538461538461538 26.68965517241379 L42.368421052631575 106.97619047619047 L10.868421052631579 27.441176470588232 z"/>
<path fill="#bababa" stroke="#bababa" d="M-113.98148148148148 14.375 L-29.41176470588235 1.84375 L-29.238095238095237 3.6875 z"/>
<path fill="#bababa" stroke="#bababa" d="M21.52631578947368 20.185185185185183 L22.757575757575754 18.829268292682926 L88.71428571428571 73.4047619047619 z"/>
<path fill="#bababa" stroke="#bababa" d="M5.53125 28.954545454545453 L7.3076923076923075 28.548387096774192 L28.485714285714284 111.29032258064515 z"/>
<path fill="#bababa" stroke="#bababa" d="M-18.829268292682926 22.757575757575754 L-17.352941176470587 23.88 L-67.6470588235294 93.09523809523809 z"/>
<path fill="#bababa" stroke="#bababa" d="M-18.829268292682926 22.757575757575754 L-67.6470588235294 93.09523809523809 L-73.4047619047619 88.71428571428571 z"/>
<path fill="#bababa" stroke="#bababa" d="M9.130434782608695 -28.06060606060606 L7.3076923076923075 -28.548387096774192 L35.59459459459459 -109.39024390243901 z"/>
<path fill="#bababa" stroke="#bababa" d="M15.804347826086955 -24.891304347826086 L61.607142857142854 -97.03125 L67.6470588235294 -93.09523809523809 z"/>
<path fill="#bababa" stroke="#bababa" d="M-93.09523809523809 67.6470588235294 L-22.757575757575754 18.829268292682926 L-88.71428571428571 73.4047619047619 z"/>
<path fill="#bababa" stroke="#bababa" d="M28.485714285714284 111.29032258064515 L7.3076923076923075 28.548387096774192 L35.59459459459459 109.39024390243901 z"/>
<path fill="#bababa" stroke="#bababa" d="M23.88 -17.352941176470587 L22.757575757575754 -18.829268292682926 L93.09523809523809 -67.6470588235294 z"/>
<path fill="#bababa" stroke="#bababa" d="M-78.68421052631578 83.9189189189189 L-20.185185185185183 21.52631578947368 L-73.4047619047619 88.71428571428571 z"/>
<path fill="#bababa" stroke="#bababa" d="M-48.875 104.04761904761904 L-12.538461538461538 26.68965517241379 L-42.368421052631575 106.97619047619047 z"/>
<path fill="#bababa" stroke="#bababa" d="M67.6470588235294 93.09523809523809 L15.804347826086955 24.891304347826086 L17.352941176470587 23.88 z"/>
<path fill="#bababa" stroke="#bababa" d="M-28.548387096774192 -7.3076923076923075 L-28.954545454545453 -5.53125 L-111.29032258064515 -28.485714285714284 z"/>
<path fill="#bababa" stroke="#bababa" d="M-29.238095238095237 -3.6875 L-113.98148148148148 -14.375 L-28.954545454545453 -5.53125 z"/>
<path fill="#bababa" stroke="#bababa" d="M-28.548387096774192 -7.3076923076923075 L-111.29032258064515 -28.485714285714284 L-109.39024390243901 -35.59459459459459 z"/>
<path fill="#bababa" stroke="#bababa" d="M25.878048780487802 14.204545454545453 L26.68965517241379 12.538461538461538 L104.04761904761904 48.875 z"/>
<path fill="#bababa" stroke="#bababa" d="M5.53125 28.954545454545453 L21.5625 112.8695652173913 L14.375 113.98148148148148 z"/>
<path fill="#bababa" stroke="#bababa" d="M1.84375 -29.41176470588235 L0 -29.5 L7.1875 -114.6578947368421 z"/>
<path fill="#bababa" stroke="#bababa" d="M-5.53125 28.954545454545453 L-21.5625 112.8695652173913 L-28.485714285714284 111.29032258064515 z"/>
<path fill="#bababa" stroke="#bababa" d="M-18.829268292682926 22.757575757575754 L-73.4047619047619 88.71428571428571 L-20.185185185185183 21.52631578947368 z"/>
<path fill="#bababa" stroke="#bababa" d="M27.441176470588232 10.868421052631579 L28.06060606060606 9.130434782608695 L106.97619047619047 42.368421052631575 z"/>
<path fill="#bababa" stroke="#bababa" d="M10.868421052631579 -27.441176470588232 L42.368421052631575 -106.97619047619047 L12.538461538461538 -26.68965517241379 z"/>
<path fill="#bababa" stroke="#bababa" d="M114.6578947368421 -7.1875 L115 0 L29.5 0 z"/>
<path fill="#bababa" stroke="#bababa" d="M113.98148148148148 -14.375 L28.954545454545453 -5.53125 L112.8695652173913 -21.5625 z"/>
<path fill="#bababa" stroke="#bababa" d="M21.52631578947368 20.185185185185183 L88.71428571428571 73.4047619047619 L83.9189189189189 78.68421052631578 z"/>
<path fill="#bababa" stroke="#bababa" d="M-28.548387096774192 7.3076923076923075 L-28.06060606060606 9.130434782608695 L-109.39024390243901 35.59459459459459 z"/>
<path fill="#bababa" stroke="#bababa" d="M7.3076923076923075 -28.548387096774192 L28.485714285714284 -111.29032258064515 L35.59459459459459 -109.39024390243901 z"/>
<path fill="#bababa" stroke="#bababa" d="M14.204545454545453 -25.878048780487802 L12.538461538461538 -26.68965517241379 L48.875 -104.04761904761904 z"/>
<path fill="#bababa" stroke="#bababa" d="M22.757575757575754 -18.829268292682926 L21.52631578947368 -20.185185185185183 L88.71428571428571 -73.4047619047619 z"/>
<path fill="#bababa" stroke="#bababa" d="M23.88 17.352941176470587 L24.891304347826086 15.804347826086955 L93.09523809523809 67.6470588235294 z"/>
<path fill="#bababa" stroke="#bababa" d="M5.53125 28.954545454545453 L14.375 113.98148148148148 L3.6875 29.238095238095237 z"/>
<path fill="#bababa" stroke="#bababa" d="M-27.441176470588232 -10.868421052631579 L-28.06060606060606 -9.130434782608695 L-106.97619047619047 -42.368421052631575 z"/>
<path fill="#bababa" stroke="#bababa" d="M-22.757575757575754 -18.829268292682926 L-93.09523809523809 -67.6470588235294 L-88.71428571428571 -73.4047619047619 z"/>
<path fill="#bababa" stroke="#bababa" d="M14.204545454545453 -25.878048780487802 L55.37037037037037 -100.8780487804878 L15.804347826086955 -24.891304347826086 z"/>
<path fill="#bababa" stroke="#bababa" d="M26.68965517241379 -12.538461538461538 L106.97619047619047 -42.368421052631575 L27.441176470588232 -10.868421052631579 z"/>
<path fill="#bababa" stroke="#bababa" d="M114.6578947368421 7.1875 L29.5 0 L115 0 z"/>
<path fill="#bababa" stroke="#bababa" d="M-9.130434782608695 -28.06060606060606 L-35.59459459459459 -109.39024390243901 L-7.3076923076923075 -28.548387096774192 z"/>
<path fill="#bababa" stroke="#bababa" d="M-28.548387096774192 -7.3076923076923075 L-109.39024390243901 -35.59459459459459 L-28.06060606060606 -9.130434782608695 z"/>
<path fill="#bababa" stroke="#bababa" d="M88.71428571428571 73.4047619047619 L22.757575757575754 18.829268292682926 L93.09523809523809 67.6470588235294 z"/>
<path fill="#bababa" stroke="#bababa" d="M-29.41176470588235 -1.84375 L-114.6578947368421 -7.1875 L-113.98148148148148 -14.375 z"/>
<path fill="#bababa" stroke="#bababa" d="M-1.84375 -29.41176470588235 L-3.6875 -29.238095238095237 L-14.375 -113.98148148148148 z"/>
<path fill="#bababa" stroke="#bababa" d="M-15.804347826086955 24.891304347826086 L-67.6470588235294 93.09523809523809 L-17.352941176470587 23.88 z"/>
<path fill="#bababa" stroke="#bababa" d="M25.878048780487802 14.204545454545453 L104.04761904761904 48.875 L100.8780487804878 55.37037037037037 z"/>
<path fill="#bababa" stroke="#bababa" d="M-24.891304347826086 -15.804347826086955 L-100.8780487804878 -55.37037037037037 L-97.03125 -61.607142857142854 z"/>
<path fill="#bababa" stroke="#bababa" d="M28.548387096774192 7.3076923076923075 L28.954545454545453 5.53125 L111.29032258064515 28.485714285714284 z"/>
<path fill="#bababa" stroke="#bababa" d="M27.441176470588232 10.868421052631579 L106.97619047619047 42.368421052631575 L26.68965517241379 12.538461538461538 z"/>
<path fill="#bababa" stroke="#bababa" d="M23.88 -17.352941176470587 L93.09523809523809 -67.6470588235294 L24.891304347826086 -15.804347826086955 z"/>
<path fill="#bababa" stroke="#bababa" d="M42.368421052631575 -106.97619047619047 L48.875 -104.04761904761904 L12.538461538461538 -26.68965517241379 z"/>
<path fill="#bababa" stroke="#bababa" d="M-7.3076923076923075 28.548387096774192 L-5.53125 28.954545454545453 L-28.485714285714284 111.29032258064515 z"/>
<path fill="#bababa" stroke="#bababa" d="M-114.6578947368421 -7.1875 L-29.5 0 L-115 0 z"/>
<path fill="#bababa" stroke="#bababa" d="M-21.52631578947368 20.185185185185183 L-83.9189189189189 78.68421052631578 L-88.71428571428571 73.4047619047619 z"/>
<path fill="#bababa" stroke="#bababa" d="M88.71428571428571 -73.4047619047619 L21.52631578947368 -20.185185185185183 L83.9189189189189 -78.68421052631578 z"/>
<path fill="#bababa" stroke="#bababa" d="M24.891304347826086 -15.804347826086955 L97.03125 -61.607142857142854 L100.8780487804878 -55.37037037037037 z"/>
<path fill="#bababa" stroke="#bababa" d="M-26.68965517241379 -12.538461538461538 L-106.97619047619047 -42.368421052631575 L-104.04761904761904 -48.875 z"/>
<path fill="#bababa" stroke="#bababa" d="M0 -29.5 L0 -115 L7.1875 -114.6578947368421 z"/>
<path fill="#bababa" stroke="#bababa" d="M-28.06060606060606 9.130434782608695 L-27.441176470588232 10.868421052631579 L-106.97619047619047 42.368421052631575 z"/>
<path fill="#bababa" stroke="#bababa" d="M24.891304347826086 -15.804347826086955 L100.8780487804878 -55.37037037037037 L25.878048780487802 -14.204545454545453 z"/>
<path fill="#bababa" stroke="#bababa" d="M28.548387096774192 7.3076923076923075 L109.39024390243901 35.59459459459459 L28.06060606060606 9.130434782608695 z"/>
<path fill="#bababa" stroke="#bababa" d="M15.804347826086955 24.891304347826086 L61.607142857142854 97.03125 L55.37037037037037 100.8780487804878 z"/>
<path fill="#bababa" stroke="#bababa" d="M-15.804347826086955 24.891304347826086 L-61.607142857142854 97.03125 L-67.6470588235294 93.09523809523809 z"/>
<path fill="#bababa" stroke="#bababa" d="M113.98148148148148 -14.375 L29.41176470588235 -1.84375 L29.238095238095237 -3.6875 z"/>
<path fill="#bababa" stroke="#bababa" d="M10.868421052631579 -27.441176470588232 L9.130434782608695 -28.06060606060606 L42.368421052631575 -106.97619047619047 z"/>
<path fill="#bababa" stroke="#bababa" d="M0 -29.5 L-7.1875 -114.6578947368421 L0 -115 z"/>
<path fill="#bababa" stroke="#bababa" d="M14.375 -113.98148148148148 L1.84375 -29.41176470588235 L7.1875 -114.6578947368421 z"/>
<path fill="#bababa" stroke="#bababa" d="M-28.06060606060606 -9.130434782608695 L-109.39024390243901 -35.59459459459459 L-106.97619047619047 -42.368421052631575 z"/>
<path fill="#bababa" stroke="#bababa" d="M-12.538461538461538 -26.68965517241379 L-14.204545454545453 -25.878048780487802 L-48.875 -104.04761904761904 z"/>
<path fill="#bababa" stroke="#bababa" d="M-113.98148148148148 14.375 L-28.954545454545453 5.53125 L-112.8695652173913 21.5625 z"/>
<path fill="#bababa" stroke="#bababa" d="M109.39024390243901 -35.59459459459459 L28.06060606060606 -9.130434782608695 L106.97619047619047 -42.368421052631575 z"/>
<path fill="#bababa" stroke="#bababa" d="M9.130434782608695 28.06060606060606 L10.868421052631579 27.441176470588232 L42.368421052631575 106.97619047619047 z"/>
<path fill="#bababa" stroke="#bababa" d="M97.03125 61.607142857142854 L24.891304347826086 15.804347826086955 L100.8780487804878 55.37037037037037 z"/>
<path fill="#bababa" stroke="#bababa" d="M-12.538461538461538 -26.68965517241379 L-48.875 -104.04761904761904 L-42.368421052631575 -106.97619047619047 z"/>
<path fill="#bababa" stroke="#bababa" d="M18.829268292682926 22.757575757575754 L67.6470588235294 93.09523809523809 L17.352941176470587 23.88 z"/>
<path fill="#bababa" stroke="#bababa" d="M-9.130434782608695 -28.06060606060606 L-42.368421052631575 -106.97619047619047 L-35.59459459459459 -109.39024390243901 z"/>
<path fill="#bababa" stroke="#bababa" d="M-88.71428571428571 -73.4047619047619 L-83.9189189189189 -78.68421052631578 L-21.52631578947368 -20.185185185185183 z"/>
<path fill="#bababa" stroke="#bababa" d="M-61.607142857142854 -97.03125 L-15.804347826086955 -24.891304347826086 L-67.6470588235294 -93.09523809523809 z"/>
<path fill="#bababa" stroke="#bababa" d="M20.185185185185183 -21.52631578947368 L73.4047619047619 -88.71428571428571 L78.68421052631578 -83.9189189189189 z"/>
<path fill="#bababa" stroke="#bababa" d="M18.829268292682926 22.757575757575754 L20.185185185185183 21.52631578947368 L73.4047619047619 88.71428571428571 z"/>
<path fill="#bababa" stroke="#bababa" d="M20.185185185185183 21.52631578947368 L78.68421052631578 83.9189189189189 L73.4047619047619 88.71428571428571 z"/>
<path fill="#bababa" stroke="#bababa" d="M-114.6578947368421 7.1875 L-29.5 0 L-29.41176470588235 1.84375 z"/>
<path fill="#bababa" stroke="#bababa" d="M-26.68965517241379 12.538461538461538 L-106.97619047619047 42.368421052631575 L-27.441176470588232 10.868421052631579 z"/>
<path fill="#bababa" stroke="#bababa" d="M7.1875 114.6578947368421 L0 115 L0 29.5 z"/>
<path fill="#bababa" stroke="#bababa" d="M28.548387096774192 -7.3076923076923075 L28.06060606060606 -9.130434782608695 L109.39024390243901 -35.59459459459459 z"/>
<path fill="#bababa" stroke="#bababa" d="M-26.68965517241379 12.538461538461538 L-104.04761904761904 48.875 L-106.97619047619047 42.368421052631575 z"/>
<path fill="#bababa" stroke="#bababa" d="M5.53125 -28.954545454545453 L3.6875 -29.238095238095237 L14.375 -113.98148148148148 z"/>
<path fill="#bababa" stroke="#bababa" d="M27.441176470588232 -10.868421052631579 L106.97619047619047 -42.368421052631575 L28.06060606060606 -9.130434782608695 z"/>
<path fill="#bababa" stroke="#bababa" d="M111.29032258064515 28.485714285714284 L28.954545454545453 5.53125 L112.8695652173913 21.5625 z"/>
<path fill="#bababa" stroke="#bababa" d="M-14.204545454545453 -25.878048780487802 L-55.37037037037037 -100.8780487804878 L-48.875 -104.04761904761904 z"/>
<path fill="#bababa" stroke="#bababa" d="M-1.84375 -29.41176470588235 L-14.375 -113.98148148148148 L-7.1875 -114.6578947368421 z"/>
<path fill="#bababa" stroke="#bababa" d="M67.6470588235294 93.09523809523809 L61.607142857142854 97.03125 L15.804347826086955 24.891304347826086 z"/>
<path fill="#bababa" stroke="#bababa" d="M5.53125 -28.954545454545453 L21.5625 -112.8695652173913 L28.485714285714284 -111.29032258064515 z"/>
<path fill="#bababa" stroke="#bababa" d="M-1.84375 29.41176470588235 L0 29.5 L-7.1875 114.6578947368421 z"/>
<path fill="#bababa" stroke="#bababa" d="M104.04761904761904 48.875 L26.68965517241379 12.538461538461538 L106.97619047619047 42.368421052631575 z"/>
<path fill="#bababa" stroke="#bababa" d="M-114.6578947368421 7.1875 L-29.41176470588235 1.84375 L-113.98148148148148 14.375 z"/>
<path fill="#bababa" stroke="#bababa" d="M-28.548387096774192 7.3076923076923075 L-109.39024390243901 35.59459459459459 L-111.29032258064515 28.485714285714284 z"/>
<path fill="#bababa" stroke="#bababa" d="M1.84375 29.41176470588235 L3.6875 29.238095238095237 L14.375 113.98148148148148 z"/>
<path fill="#bababa" stroke="#bababa" d="M114.6578947368421 -7.1875 L29.41176470588235 -1.84375 L113.98148148148148 -14.375 z"/>
<path fill="#bababa" stroke="#bababa" d="M73.4047619047619 -88.71428571428571 L18.829268292682926 -22.757575757575754 L67.6470588235294 -93.09523809523809 z"/>
<path fill="#bababa" stroke="#bababa" d="M-111.29032258064515 -28.485714285714284 L-28.954545454545453 -5.53125 L-112.8695652173913 -21.5625 z"/>
<path fill="#bababa" stroke="#bababa" d="M-7.3076923076923075 28.548387096774192 L-35.59459459459459 109.39024390243901 L-9.130434782608695 28.06060606060606 z"/>
<path fill="#bababa" stroke="#bababa" d="M-113.98148148148148 -14.375 L-112.8695652173913 -21.5625 L-28.954545454545453 -5.53125 z"/>
<path fill="#bababa" stroke="#bababa" d="M-61.607142857142854 -97.03125 L-55.37037037037037 -100.8780487804878 L-15.804347826086955 -24.891304347826086 z"/>
<path fill="#bababa" stroke="#bababa" d="M-14.204545454545453 25.878048780487802 L-48.875 104.04761904761904 L-55.37037037037037 100.8780487804878 z"/>
<path fill="#bababa" stroke="#bababa" d="M14.375 -113.98148148148148 L3.6875 -29.238095238095237 L1.84375 -29.41176470588235 z"/>
<path fill="#bababa" stroke="#bababa" d="M29.238095238095237 3.6875 L113.98148148148148 14.375 L28.954545454545453 5.53125 z"/>
<path fill="#bababa" stroke="#bababa" d="M-24.891304347826086 15.804347826086955 L-97.03125 61.607142857142854 L-100.8780487804878 55.37037037037037 z"/>
<path fill="#bababa" stroke="#bababa" d="M-1.84375 29.41176470588235 L-7.1875 114.6578947368421 L-14.375 113.98148148148148 z"/>
<path fill="#bababa" stroke="#bababa" d="M29.41176470588235 1.84375 L114.6578947368421 7.1875 L113.98148148148148 14.375 z"/>
<path fill="#bababa" stroke="#bababa" d="M22.757575757575754 -18.829268292682926 L88.71428571428571 -73.4047619047619 L93.09523809523809 -67.6470588235294 z"/>
<path fill="#bababa" stroke="#bababa" d="M113.98148148148148 14.375 L112.8695652173913 21.5625 L28.954545454545453 5.53125 z"/>
<path fill="#bababa" stroke="#bababa" d="M5.53125 -28.954545454545453 L28.485714285714284 -111.29032258064515 L7.3076923076923075 -28.548387096774192 z"/>
<path fill="#bababa" stroke="#bababa" d="M1.84375 29.41176470588235 L7.1875 114.6578947368421 L0 29.5 z"/>
<path fill="#bababa" stroke="#bababa" d="M-17.352941176470587 -23.88 L-67.6470588235294 -93.09523809523809 L-15.804347826086955 -24.891304347826086 z"/>
<path fill="#bababa" stroke="#bababa" d="M9.130434782608695 28.06060606060606 L42.368421052631575 106.97619047619047 L35.59459459459459 109.39024390243901 z"/>
<path fill="#bababa" stroke="#bababa" d="M113.98148148148148 -14.375 L29.238095238095237 -3.6875 L28.954545454545453 -5.53125 z"/>
<path fill="#bababa" stroke="#bababa" d="M14.204545454545453 -25.878048780487802 L48.875 -104.04761904761904 L55.37037037037037 -100.8780487804878 z"/>
<path fill="#bababa" stroke="#bababa" d="M-9.130434782608695 -28.06060606060606 L-10.868421052631579 -27.441176470588232 L-42.368421052631575 -106.97619047619047 z"/>
<path fill="#bababa" stroke="#bababa" d="M111.29032258064515 -28.485714285714284 L112.8695652173913 -21.5625 L28.954545454545453 -5.53125 z"/>
<path fill="#bababa" stroke="#bababa" d="M-7.3076923076923075 -28.548387096774192 L-28.485714285714284 -111.29032258064515 L-5.53125 -28.954545454545453 z"/>
<path fill="#bababa" stroke="#bababa" d="M5.53125 28.954545454545453 L28.485714285714284 111.29032258064515 L21.5625 112.8695652173913 z"/>
<path fill="#bababa" stroke="#bababa" d="M18.829268292682926 22.757575757575754 L73.4047619047619 88.71428571428571 L67.6470588235294 93.09523809523809 z"/>
<path fill="#bababa" stroke="#bababa" d="M-7.3076923076923075 -28.548387096774192 L-35.59459459459459 -109.39024390243901 L-28.485714285714284 -111.29032258064515 z"/>
<path fill="#bababa" stroke="#bababa" d="M12.538461538461538 26.68965517241379 L48.875 104.04761904761904 L42.368421052631575 106.97619047619047 z"/>
<path fill="#bababa" stroke="#bababa" d="M-9.130434782608695 28.06060606060606 L-35.59459459459459 109.39024390243901 L-42.368421052631575 106.97619047619047 z"/>
<path fill="#bababa" stroke="#bababa" d="M-104.04761904761904 -48.875 L-100.8780487804878 -55.37037037037037 L-25.878048780487802 -14.204545454545453 z"/>
<path fill="#bababa" stroke="#bababa" d="M-17.352941176470587 -23.88 L-18.829268292682926 -22.757575757575754 L-67.6470588235294 -93.09523809523809 z"/>
<path fill="#bababa" stroke="#bababa" d="M-3.6875 -29.238095238095237 L-5.53125 -28.954545454545453 L-14.375 -113.98148148148148 z"/>
<path fill="#bababa" stroke="#bababa" d="M-20.185185185185183 -21.52631578947368 L-21.52631578947368 -20.185185185185183 L-83.9189189189189 -78.68421052631578 L-78.68421052631578 -83.9189189189189 z"/>
<path fill="#bababa" stroke="#bababa" d="M-14.204545454545453 -25.878048780487802 L-15.804347826086955 -24.891304347826086 L-55.37037037037037 -100.8780487804878 z"/>
<path fill="#bababa" stroke="#bababa" d="M104.04761904761904 -48.875 L25.878048780487802 -14.204545454545453 L100.8780487804878 -55.37037037037037 z"/>
<path fill="#bababa" stroke="#bababa" d="M1.84375 29.41176470588235 L14.375 113.98148148148148 L7.1875 114.6578947368421 z"/>
<path fill="#bababa" stroke="#bababa" d="M20.185185185185183 21.52631578947368 L21.52631578947368 20.185185185185183 L83.9189189189189 78.68421052631578 L78.68421052631578 83.9189189189189 z"/>
<path fill="#bababa" stroke="#bababa" d="M-83.9189189189189 78.68421052631578 L-21.52631578947368 20.185185185185183 L-20.185185185185183 21.52631578947368 L-78.68421052631578 83.9189189189189 z"/>
<path fill="#bababa" stroke="#bababa" d="M-10.868421052631579 27.441176470588232 L-9.130434782608695 28.06060606060606 L-42.368421052631575 106.97619047619047 z"/>
<path fill="#bababa" stroke="#bababa" d="M-12.538461538461538 -26.68965517241379 L-42.368421052631575 -106.97619047619047 L-10.868421052631579 -27.441176470588232 z"/>
<path fill="#bababa" stroke="#bababa" d="M-22.757575757575754 -18.829268292682926 L-88.71428571428571 -73.4047619047619 L-21.52631578947368 -20.185185185185183 z"/>
<path fill="#bababa" stroke="#bababa" d="M97.03125 61.607142857142854 L93.09523809523809 67.6470588235294 L24.891304347826086 15.804347826086955 z"/>
<path fill="#bababa" stroke="#bababa" d="M-106.97619047619047 42.368421052631575 L-104.04761904761904 48.875 L-100.8780487804878 55.37037037037037 L-97.03125 61.607142857142854 L-93.09523809523809 67.6470588235294 L-88.71428571428571 73.4047619047619 L-83.9189189189189 78.68421052631578 L-78.68421052631578 83.9189189189189 L-73.4047619047619 88.71428571428571 L-67.6470588235294 93.09523809523809 L-61.607142857142854 97.03125 L-55.37037037037037 100.8780487804878 L-48.875 104.04761904761904 L-42.368421052631575 106.97619047619047 L-35.59459459459459 109.39024390243901 L-28.485714285714284 111.29032258064515 L-21.5625 112.8695652173913 L-14.375 113.98148148148148 L-7.1875 114.6578947368421 L0 115 L7.1875 114.6578947368421 L14.375 113.98148148148148 L21.5625 112.8695652173913 L28.485714285714284 111.29032258064515 L35.59459459459459 109.39024390243901 L42.368421052631575 106.97619047619047 L48.875 104.04761904761904 L55.37037037037037 100.8780487804878 L61.607142857142854 97.03125 L67.6470588235294 93.09523809523809 L73.4047619047619 88.71428571428571 L78.68421052631578 83.9189189189189 L83.9189189189189 78.68421052631578 L88.71428571428571 73.4047619047619 L93.09523809523809 67.6470588235294 L97.03125 61.607142857142854 L100.8780487804878 55.37037037037037 L104.04761904761904 48.875 L106.97619047619047 42.368421052631575 L109.39024390243901 35.59459459459459 L111.29032258064515 28.485714285714284 L112.8695652173913 21.5625 L113.98148148148148 14.375 L114.6578947368421 7.1875 L115 0 L114.6578947368421 -7.1875 L113.98148148148148 -14.375 L112.8695652173913 -21.5625 L111.29032258064515 -28.485714285714284 L109.39024390243901 -35.59459459459459 L106.97619047619047 -42.368421052631575 L104.04761904761904 -48.875 L100.8780487804878 -55.37037037037037 L97.03125 -61.607142857142854 L93.09523809523809 -67.6470588235294 L88.71428571428571 -73.4047619047619 L83.9189189189189 -78.68421052631578 L78.68421052631578 -83.9189189189189 L73.4047619047619 -88.71428571428571 L67.6470588235294 -93.09523809523809 L61.607142857142854 -97.03125 L55.37037037037037 -100.8780487804878 L48.875 -104.04761904761904 L42.368421052631575 -106.97619047619047 L35.59459459459459 -109.39024390243901 L28.485714285714284 -111.29032258064515 L21.5625 -112.8695652173913 L14.375 -113.98148148148148 L7.1875 -114.6578947368421 L0 -115 L-7.1875 -114.6578947368421 L-14.375 -113.98148148148148 L-21.5625 -112.8695652173913 L-28.485714285714284 -111.29032258064515 L-35.59459459459459 -109.39024390243901 L-42.368421052631575 -106.97619047619047 L-48.875 -104.04761904761904 L-55.37037037037037 -100.8780487804878 L-61.607142857142854 -97.03125 L-67.6470588235294 -93.09523809523809 L-73.4047619047619 -88.71428571428571 L-78.68421052631578 -83.9189189189189 L-83.9189189189189 -78.68421052631578 L-88.71428571428571 -73.4047619047619 L-93.09523809523809 -67.6470588235294 L-97.03125 -61.607142857142854 L-100.8780487804878 -55.37037037037037 L-104.04761904761904 -48.875 L-106.97619047619047 -42.368421052631575 L-109.39024390243901 -35.59459459459459 L-111.29032258064515 -28.485714285714284 L-112.8695652173913 -21.5625 L-113.98148148148148 -14.375 L-114.6578947368421 -7.1875 L-115 0 L-114.6578947368421 7.1875 L-113.98148148148148 14.375 L-112.8695652173913 21.5625 L-111.29032258064515 28.485714285714284 L-109.39024390243901 35.59459459459459 z"/>
<path fill="#bababa" stroke="#bababa" d="M-111.29032258064515 28.485714285714284 L-112.8695652173913 21.5625 L-28.954545454545453 5.53125 z"/>
<path fill="#bababa" stroke="#bababa" d="M20.185185185185183 -21.52631578947368 L78.68421052631578 -83.9189189189189 L83.9189189189189 -78.68421052631578 L21.52631578947368 -20.185185185185183 z"/>
<path fill="#bababa" stroke="#bababa" d="M18.829268292682926 -22.757575757575754 L17.352941176470587 -23.88 L67.6470588235294 -93.09523809523809 z"/>
<path fill="#bababa" stroke="#bababa" d="M-28.06060606060606 9.130434782608695 L-106.97619047619047 42.368421052631575 L-109.39024390243901 35.59459459459459 z"/>
<path fill="#bababa" stroke="#bababa" d="M-14.375 -113.98148148148148 L-5.53125 -28.954545454545453 L-21.5625 -112.8695652173913 z"/>
<path fill="#bababa" stroke="#bababa" d="M-21.5625 -112.8695652173913 L-5.53125 -28.954545454545453 L-28.485714285714284 -111.29032258064515 z"/>
<path fill="#bababa" stroke="#bababa" d="M-23.88 17.352941176470587 L-24.891304347826086 15.804347826086955 L-25.878048780487802 14.204545454545453 L-26.68965517241379 12.538461538461538 L-27.441176470588232 10.868421052631579 L-28.06060606060606 9.130434782608695 L-28.548387096774192 7.3076923076923075 L-28.954545454545453 5.53125 L-29.238095238095237 3.6875 L-29.41176470588235 1.84375 L-29.5 0 L-29.41176470588235 -1.84375 L-29.238095238095237 -3.6875 L-28.954545454545453 -5.53125 L-28.548387096774192 -7.3076923076923075 L-28.06060606060606 -9.130434782608695 L-27.441176470588232 -10.868421052631579 L-26.68965517241379 -12.538461538461538 L-25.878048780487802 -14.204545454545453 L-24.891304347826086 -15.804347826086955 L-23.88 -17.352941176470587 L-22.757575757575754 -18.829268292682926 L-21.52631578947368 -20.185185185185183 L-20.185185185185183 -21.52631578947368 L-18.829268292682926 -22.757575757575754 L-17.352941176470587 -23.88 L-15.804347826086955 -24.891304347826086 L-14.204545454545453 -25.878048780487802 L-12.538461538461538 -26.68965517241379 L-10.868421052631579 -27.441176470588232 L-9.130434782608695 -28.06060606060606 L-7.3076923076923075 -28.548387096774192 L-5.53125 -28.954545454545453 L-3.6875 -29.238095238095237 L-1.84375 -29.41176470588235 L0 -29.5 L1.84375 -29.41176470588235 L3.6875 -29.238095238095237 L5.53125 -28.954545454545453 L7.3076923076923075 -28.548387096774192 L9.130434782608695 -28.06060606060606 L10.868421052631579 -27.441176470588232 L12.538461538461538 -26.68965517241379 L14.204545454545453 -25.878048780487802 L15.804347826086955 -24.891304347826086 L17.352941176470587 -23.88 L18.829268292682926 -22.757575757575754 L20.185185185185183 -21.52631578947368 L21.52631578947368 -20.185185185185183 L22.757575757575754 -18.829268292682926 L23.88 -17.352941176470587 L24.891304347826086 -15.804347826086955 L25.878048780487802 -14.204545454545453 L26.68965517241379 -12.538461538461538 L27.441176470588232 -10.868421052631579 L28.06060606060606 -9.130434782608695 L28.548387096774192 -7.3076923076923075 L28.954545454545453 -5.53125 L29.238095238095237 -3.6875 L29.41176470588235 -1.84375 L29.5 0 L29.41176470588235 1.84375 L29.238095238095237 3.6875 L28.954545454545453 5.53125 L28.548387096774192 7.3076923076923075 L28.06060606060606 9.130434782608695 L27.441176470588232 10.868421052631579 L26.68965517241379 12.538461538461538 L25.878048780487802 14.204545454545453 L24.891304347826086 15.804347826086955 L23.88 17.352941176470587 L22.757575757575754 18.829268292682926 L21.52631578947368 20.185185185185183 L20.185185185185183 21.52631578947368 L18.829268292682926 22.757575757575754 L17.352941176470587 23.88 L15.804347826086955 24.891304347826086 L14.204545454545453 25.878048780487802 L12.538461538461538 26.68965517241379 L10.868421052631579 27.441176470588232 L9.130434782608695 28.06060606060606 L7.3076923076923075 28.548387096774192 L5.53125 28.954545454545453 L3.6875 29.238095238095237 L1.84375 29.41176470588235 L0 29.5 L-1.84375 29.41176470588235 L-3.6875 29.238095238095237 L-5.53125 28.954545454545453 L-7.3076923076923075 28.548387096774192 L-9.130434782608695 28.06060606060606 L-10.868421052631579 27.441176470588232 L-12.538461538461538 26.68965517241379 L-14.204545454545453 25.878048780487802 L-15.804347826086955 24.891304347826086 L-17.352941176470587 23.88 L-18.829268292682926 22.757575757575754 L-20.185185185185183 21.52631578947368 L-21.52631578947368 20.185185185185183 L-22.757575757575754 18.829268292682926 z"/>
</svg>